<svg width="666" height="761" viewBox="0 0 666 761" fill="none" xmlns="http://www.w3.org/2000/svg">
<g clip-path="url(#clip0)">
<path fill-rule="evenodd" clip-rule="evenodd" d="M273.413 68.8314C277.362 71.3828 272.649 73.6898 273.413 78.2496C270.622 78.6024 271.86 74.8298 269.754 74.5041C270.122 71.7085 272.755 71.3013 273.413 68.8314Z" fill="black"/>
<path fill-rule="evenodd" clip-rule="evenodd" d="M232.267 80.1496C229.266 88.6449 235.979 83.2166 234.899 90.5177C241.797 89.8392 242.086 93.2319 248.615 88.6178C250.273 97.5203 236.216 100.044 233.057 95.2404C231.819 95.5118 232.32 97.6017 232.162 99.0131C223.132 96.9774 225.133 83.5966 217.525 80.1496C222.842 78.2768 226.001 83.1623 232.267 80.1496Z" fill="black"/>
<path fill-rule="evenodd" clip-rule="evenodd" d="M231.345 103.709C232.02 105.647 233.261 107.321 234.897 108.502C236.533 109.683 238.483 110.313 240.48 110.304C237.321 115.461 227.528 108.784 231.345 103.709Z" fill="black"/>
<path fill-rule="evenodd" clip-rule="evenodd" d="M214.892 121.622C214.234 126.291 210.943 128.245 207.574 130.117C207.969 125.205 211.549 123.549 214.892 121.622Z" fill="black"/>
<path fill-rule="evenodd" clip-rule="evenodd" d="M202.993 133.89C204.072 133.727 204.625 134.107 204.836 134.84C199.255 146.701 198.097 163.095 192.015 174.44C191.726 177.588 193.253 182.582 189.383 181.985C192.437 167.682 196.675 147.895 202.993 133.89Z" fill="black"/>
<path fill-rule="evenodd" clip-rule="evenodd" d="M188.356 182.908C187.066 195.122 173.009 202.287 173.72 219.685C169.85 221.042 170.666 227.231 166.401 228.181C165.98 244.466 154.818 249.541 150.869 262.135C150.527 255.485 154.529 245.144 160.926 242.321C162.558 233.012 165.138 224.679 170.982 219.685C173.377 203.916 180.564 193.113 188.356 182.908Z" fill="black"/>
<path fill-rule="evenodd" clip-rule="evenodd" d="M186.54 197.049C188.33 197.7 188.962 199.573 189.173 201.772C186.408 202.206 186.356 199.763 186.54 197.049Z" fill="black"/>
<path fill-rule="evenodd" clip-rule="evenodd" d="M285.312 246.094C287.102 246.746 287.734 248.618 287.944 250.817C287.128 251.224 286.312 251.631 286.102 252.69C283.811 251.441 284.469 248.51 285.312 246.094Z" fill="black"/>
<path fill-rule="evenodd" clip-rule="evenodd" d="M137.154 280.048C138.681 287.024 125.466 294.949 122.517 303.607C121.701 293.999 134.258 285.992 137.154 280.048Z" fill="black"/>
<path fill-rule="evenodd" clip-rule="evenodd" d="M116.12 309.416C119.463 311.777 117.436 321.494 124.334 320.707C119.885 324.235 115.225 329.446 116.12 337.698C104.906 334.603 117.7 327.221 117.015 320.707C115.357 318.671 111.75 318.725 107.88 318.834C110.065 314.844 114.936 314.003 116.12 309.416Z" fill="black"/>
<path fill-rule="evenodd" clip-rule="evenodd" d="M207.574 321.521C199.676 329.338 175.22 316.337 167.323 315.876C181.88 312.564 193.832 323.882 207.574 321.521Z" fill="black"/>
<path fill-rule="evenodd" clip-rule="evenodd" d="M248.72 350.753H251.353V360.171C248.509 358.732 247.983 353.331 248.72 350.753Z" fill="black"/>
<path fill-rule="evenodd" clip-rule="evenodd" d="M404.196 433.725C405.751 433.69 407.293 434.01 408.713 434.662C410.133 435.314 411.396 436.283 412.41 437.498C409.172 438.393 406.724 436.141 404.196 433.725Z" fill="black"/>
<path fill-rule="evenodd" clip-rule="evenodd" d="M104.221 450.689H108.802C109.17 453.267 102.668 455.303 104.221 450.689Z" fill="black"/>
<path fill-rule="evenodd" clip-rule="evenodd" d="M202.993 450.689C205.336 450.689 205.152 454.217 203.915 455.411C201.572 455.33 201.756 451.91 202.993 450.689Z" fill="black"/>
<path fill-rule="evenodd" clip-rule="evenodd" d="M88.6895 455.411C88.5315 459.347 84.1879 458.967 81.3711 460.134C83.5298 456.171 85.004 457.175 88.6895 455.411Z" fill="black"/>
<path fill-rule="evenodd" clip-rule="evenodd" d="M189.278 478.997C190.752 478.726 190.857 479.866 191.91 479.92C186.935 492.08 199.36 486.868 201.045 494.061C196.544 494.332 195.201 491.347 191.015 491.347C189.836 489.559 189.067 487.518 188.766 485.379C188.465 483.239 188.64 481.057 189.278 478.997Z" fill="black"/>
<path fill-rule="evenodd" clip-rule="evenodd" d="M96.0077 481.82C100.035 483.231 96.0077 487.248 96.9027 491.238C93.5857 490.56 95.3495 484.073 96.0077 481.82Z" fill="black"/>
<path fill-rule="evenodd" clip-rule="evenodd" d="M391.376 493.98C395.904 494.468 390.876 498.295 391.376 500.575C387.532 499.408 391.481 496.694 391.376 493.98Z" fill="black"/>
<path fill-rule="evenodd" clip-rule="evenodd" d="M449.923 496.911C451.45 494.197 454.398 500.738 452.556 501.606C449.791 502.122 451.976 497.291 449.923 496.911Z" fill="black"/>
<path fill-rule="evenodd" clip-rule="evenodd" d="M106.064 503.506C107.012 513.304 102.984 526.115 98.7456 533.661C101.01 523.456 103.195 513.114 106.064 503.506Z" fill="black"/>
<path fill-rule="evenodd" clip-rule="evenodd" d="M91.4272 506.329C94.4809 506.818 93.5069 514.797 92.3485 516.697C91.4669 515.144 90.9274 513.411 90.7681 511.619C90.6089 509.827 90.8339 508.021 91.4272 506.329Z" fill="black"/>
<path fill-rule="evenodd" clip-rule="evenodd" d="M393.219 506.329H395.851C396.246 508.31 395.219 508.826 394.93 510.102C393.429 509.885 392.955 508.473 393.219 506.329Z" fill="black"/>
<path fill-rule="evenodd" clip-rule="evenodd" d="M80.4495 514.824C81.7131 517.539 83.2663 523.944 82.2659 526.143C80.9014 522.542 80.2826 518.686 80.4495 514.824Z" fill="black"/>
<path fill-rule="evenodd" clip-rule="evenodd" d="M57.5994 515.693C62.3642 516.127 59.4421 524.487 62.1536 527.011C58.942 525.03 58.5734 520.09 57.5994 515.693Z" fill="black"/>
<path fill-rule="evenodd" clip-rule="evenodd" d="M403.275 520.47C403.179 521.689 402.665 522.834 401.826 523.699C400.987 524.564 399.877 525.094 398.694 525.193C398.141 521.474 400.748 521.121 403.275 520.47Z" fill="black"/>
<path fill-rule="evenodd" clip-rule="evenodd" d="M92.3486 529.915C94.1387 531.191 92.8224 535.669 94.165 537.433C90.5585 538.031 93.0857 532.277 92.3486 529.915Z" fill="black"/>
<path fill-rule="evenodd" clip-rule="evenodd" d="M83.1874 531.788C86.7939 531.517 83.4506 538.438 85.8199 539.333C83.6086 541.966 82.8715 534.991 83.1874 531.788Z" fill="black"/>
<path fill-rule="evenodd" clip-rule="evenodd" d="M323.799 535.561C324.273 540.989 319.377 540.989 319.219 545.929C315.191 543.432 319.482 535.642 323.799 535.561Z" fill="black"/>
<path fill-rule="evenodd" clip-rule="evenodd" d="M74.0526 546.879C77.3696 549.104 77.8434 554.261 77.7118 560.07C74.7107 557.518 75.5268 550.977 74.0526 546.879Z" fill="black"/>
<path fill-rule="evenodd" clip-rule="evenodd" d="M67.6557 547.802C71.6308 547.177 69.1036 553.23 71.3149 554.424C69.4195 556.595 66.8923 551.493 67.6557 547.802Z" fill="black"/>
<path fill-rule="evenodd" clip-rule="evenodd" d="M416.069 557.247C420.939 557.247 425.178 557.925 427.047 561.02C425.862 558.875 418.254 560.64 420.65 561.97C419.333 563.869 416.754 559.12 416.069 557.247Z" fill="black"/>
<path fill-rule="evenodd" clip-rule="evenodd" d="M83.1875 559.12C85.5304 559.12 85.0039 562.295 85.0302 564.792C82.6873 564.684 83.2138 561.617 83.1875 559.12Z" fill="black"/>
<path fill-rule="evenodd" clip-rule="evenodd" d="M124.334 559.12C127.282 562.54 123.096 566.611 123.439 570.438C120.78 567.262 123.728 561.834 124.334 559.12Z" fill="black"/>
<path fill-rule="evenodd" clip-rule="evenodd" d="M77.7118 561.97C82.3714 565.01 82.3977 572.826 83.1874 579.883C80.1864 575.106 79.2913 568.185 77.7118 561.97Z" fill="black"/>
<path fill-rule="evenodd" clip-rule="evenodd" d="M341.99 567.615C338.383 567.778 334.303 571.008 331.934 569.515C333.197 566.557 341.463 562.865 341.99 567.615Z" fill="black"/>
<path fill-rule="evenodd" clip-rule="evenodd" d="M85.03 571.388C88.4786 572.256 88.5312 580.48 87.6625 582.706C85.1617 580.67 86.5306 574.536 85.03 571.388Z" fill="black"/>
<path fill-rule="evenodd" clip-rule="evenodd" d="M119.779 577.033C123.044 579.747 118.358 587.32 117.147 593.074C116.489 595.951 119.069 601.705 114.514 601.57C115.094 592.341 118.463 585.664 119.779 577.033Z" fill="black"/>
<path fill-rule="evenodd" clip-rule="evenodd" d="M183.776 578.933C185.908 582.407 184.118 589.79 184.697 594.974C183.17 590.523 180.143 583.194 183.776 578.933Z" fill="black"/>
<path fill-rule="evenodd" clip-rule="evenodd" d="M419.728 578.933C421.357 579.006 422.927 579.584 424.232 580.591C425.538 581.599 426.519 582.988 427.046 584.579C424.519 582.787 420.57 582.462 419.728 578.933Z" fill="black"/>
<path fill-rule="evenodd" clip-rule="evenodd" d="M409.672 579.883C412.752 581.729 416.595 582.787 416.99 587.429C415.295 586.826 413.755 585.833 412.487 584.526C411.22 583.218 410.257 581.631 409.672 579.883Z" fill="black"/>
<path fill-rule="evenodd" clip-rule="evenodd" d="M406.934 583.547C404.881 594.133 413.647 593.59 414.253 601.461C407.171 601.787 403.328 592.45 401.432 584.47C404.117 587.429 403.459 582.652 406.934 583.547Z" fill="black"/>
<path fill-rule="evenodd" clip-rule="evenodd" d="M108.802 590.251C111.934 591.364 109.223 601.705 106.985 603.442C105.985 597.39 109.776 596.304 108.802 590.251Z" fill="black"/>
<path fill-rule="evenodd" clip-rule="evenodd" d="M393.219 593.074C395.72 590.767 396.43 594.594 398.694 594.024V601.569C396.193 599.425 396.272 594.621 393.219 593.074Z" fill="black"/>
<path fill-rule="evenodd" clip-rule="evenodd" d="M103.3 595.897C105.274 596.494 104.168 601.705 103.3 602.492C99.43 601.298 104.168 599.425 103.3 595.897Z" fill="black"/>
<path fill-rule="evenodd" clip-rule="evenodd" d="M398.694 603.442C401.327 603.306 401.327 605.749 401.327 608.165C399.853 607.296 398.273 606.401 398.694 603.442Z" fill="black"/>
<path fill-rule="evenodd" clip-rule="evenodd" d="M375.844 604.392C379.319 604.392 379.214 611.558 378.477 612.887C377.687 610.038 375.607 608.409 375.844 604.392Z" fill="black"/>
<path fill-rule="evenodd" clip-rule="evenodd" d="M373.08 608.165C376.134 608.491 374.528 613.593 374.923 616.66C372.553 615.683 371.974 609.793 373.08 608.165Z" fill="black"/>
<path fill-rule="evenodd" clip-rule="evenodd" d="M134.416 616.66C135.706 616.66 137.049 616.497 137.049 617.583V619.483H132.573C133.179 618.506 134.679 618.506 134.416 616.66Z" fill="black"/>
<path fill-rule="evenodd" clip-rule="evenodd" d="M362.129 617.583C366.683 618.859 360.918 624.043 361.207 627.028C358.548 624.531 363.287 621.546 362.129 617.583Z" fill="black"/>
<path fill-rule="evenodd" clip-rule="evenodd" d="M81.3709 619.483C82.0816 624.314 78.7383 624.911 75.8689 626.078C77.0799 623.229 78.1592 620.27 81.3709 619.483Z" fill="black"/>
<path fill-rule="evenodd" clip-rule="evenodd" d="M353.889 621.356C355.995 622.116 354.784 627.191 352.073 626.078C351.283 623.066 353.494 623.147 353.889 621.356Z" fill="black"/>
<path fill-rule="evenodd" clip-rule="evenodd" d="M91.4272 623.256C95.0863 625.481 90.3478 632.782 90.5058 637.397C89.5054 634.954 90.6901 626.974 91.4272 623.256Z" fill="black"/>
<path fill-rule="evenodd" clip-rule="evenodd" d="M363.945 624.26C365.919 625.481 364.945 631.507 362.129 630.882C362.529 628.621 363.138 626.403 363.945 624.26Z" fill="black"/>
<path fill-rule="evenodd" clip-rule="evenodd" d="M367.604 625.129H370.237C371.158 630.557 367.604 631.1 368.42 636.447C368.998 636.476 369.568 636.308 370.044 635.97C370.52 635.631 370.874 635.141 371.053 634.574C369.289 643.748 372.869 657.563 370.132 669.451C366.499 667.225 370.921 664.592 370.132 660.006C366.551 659.463 370.368 666.547 366.472 665.678C367.868 656.306 367.868 646.769 366.472 637.397C362.839 637.071 364.551 642.309 362.813 643.992C359.865 639.079 364.314 637.749 360.181 634.574C365.551 634.33 365.683 628.82 367.604 625.129Z" fill="black"/>
<path fill-rule="evenodd" clip-rule="evenodd" d="M10.9512 626.078C13.2678 625.644 14.5841 630.991 12.7677 631.724C9.47702 632.62 11.5041 628.005 10.9512 626.078Z" fill="black"/>
<path fill-rule="evenodd" clip-rule="evenodd" d="M359.391 627.951C361.866 630.665 358.312 634.981 357.548 637.397C354.995 634.71 358.575 630.313 359.391 627.951Z" fill="black"/>
<path fill-rule="evenodd" clip-rule="evenodd" d="M393.219 627.951C396.062 627.517 396.141 629.987 395.851 632.674C393.192 633.027 394.061 629.688 393.219 627.951Z" fill="black"/>
<path fill-rule="evenodd" clip-rule="evenodd" d="M96.0076 631.724C99.6142 639.486 96.4288 649.095 97.8241 658.133C94.2175 658.703 96.7447 652.949 96.0076 650.587C89.7949 649.773 93.4278 636.664 96.0076 631.724Z" fill="black"/>
<path fill-rule="evenodd" clip-rule="evenodd" d="M98.7455 632.674C100.114 635.388 101.931 641.414 100.562 643.992C97.1396 643.259 99.3773 636.419 98.7455 632.674Z" fill="black"/>
<path fill-rule="evenodd" clip-rule="evenodd" d="M81.3709 633.624C84.1877 635.686 79.7914 644.67 76.7903 646.815C77.6064 641.685 80.4495 638.645 81.3709 633.624Z" fill="black"/>
<path fill-rule="evenodd" clip-rule="evenodd" d="M33.8014 641.169C33.4854 643.666 31.4058 644.345 29.2208 644.942C29.1155 641.956 31.59 641.685 33.8014 641.169Z" fill="black"/>
<path fill-rule="evenodd" clip-rule="evenodd" d="M39.3034 643.042C38.6025 644.611 37.5883 646.009 36.3272 647.145C35.066 648.282 33.5864 649.131 31.985 649.638C32.6958 645.675 36.4866 644.861 39.3034 643.042Z" fill="black"/>
<path fill-rule="evenodd" clip-rule="evenodd" d="M356.627 645.973C358.522 647.385 357.89 654.116 354.81 653.519C354.021 649.475 356.574 648.959 356.627 645.973Z" fill="black"/>
<path fill-rule="evenodd" clip-rule="evenodd" d="M74.9739 651.537C75.4214 656.423 71.5253 664.945 67.6555 668.501C67.7345 660.44 72.5257 657.183 74.9739 651.537Z" fill="black"/>
<path fill-rule="evenodd" clip-rule="evenodd" d="M86.8729 652.487C88.9 652.487 87.2678 656.477 87.7943 658.133C85.2671 658.106 85.583 653.682 86.8729 652.487Z" fill="black"/>
<path fill-rule="evenodd" clip-rule="evenodd" d="M78.6067 653.41C82.4239 654.822 77.5537 659.409 77.7117 662.855C74.8686 660.168 78.3435 656.043 78.6067 653.41Z" fill="black"/>
<path fill-rule="evenodd" clip-rule="evenodd" d="M101.483 666.628C105.695 673.441 101.325 684.84 104.116 693.96C107.012 694.421 104.458 689.291 107.775 690.187C107.222 700.501 108.828 710.082 109.618 721.319C106.748 720.803 108.196 715.89 106.985 713.773C106.169 714.18 105.327 714.588 105.142 715.646C102.8 713.665 103.352 708.698 103.3 704.328C107.327 705.658 105.801 701.234 105.932 698.683C103.3 697.733 104.3 700.772 104.089 702.455C100.404 698.71 101.773 689.753 100.43 683.592C97.1133 689.427 102.273 699.035 99.5089 704.328C96.2182 695.154 98.3242 678.679 96.8763 670.401C99.2456 669.885 100.825 670.401 101.483 666.628Z" fill="black"/>
<path fill-rule="evenodd" clip-rule="evenodd" d="M66.7343 670.401C69.1562 672.654 66.7343 677.838 64.1018 677.946C63.7859 674.255 65.9445 673.115 66.7343 670.401Z" fill="black"/>
<path fill-rule="evenodd" clip-rule="evenodd" d="M59.4159 674.174C56.3096 677.539 57.4415 685.329 52.0975 686.414C55.4672 683.293 53.914 675.069 59.4159 674.174Z" fill="black"/>
<path fill-rule="evenodd" clip-rule="evenodd" d="M491.991 683.592C494.386 683.32 494.992 684.894 494.623 687.364H491.991V683.592Z" fill="black"/>
<path fill-rule="evenodd" clip-rule="evenodd" d="M532.216 689.237C533.032 693.553 520.738 693.308 520.343 690.187C524.581 688.07 528.214 690.757 532.216 689.237Z" fill="black"/>
<path fill-rule="evenodd" clip-rule="evenodd" d="M455.425 690.187V692.901C453.53 693.308 453.003 692.277 451.766 691.978C451.95 690.404 453.319 689.916 455.425 690.187Z" fill="black"/>
<path fill-rule="evenodd" clip-rule="evenodd" d="M491.991 690.187V692.901C490.069 693.308 489.569 692.277 488.332 691.978C488.542 690.404 489.911 689.916 491.991 690.187Z" fill="black"/>
<path fill-rule="evenodd" clip-rule="evenodd" d="M584.418 692.114C586.235 693.661 585.577 692.114 588.078 692.114C588.499 695.045 587.288 696.321 584.418 695.86V692.114Z" fill="black"/>
<path fill-rule="evenodd" clip-rule="evenodd" d="M563.358 693.96C564.095 697.95 558.462 697.19 558.804 693.96C560.489 692.114 561.042 693.851 563.358 693.96Z" fill="black"/>
<path fill-rule="evenodd" clip-rule="evenodd" d="M568.808 693.01V696.783C566.412 697.054 564.859 696.457 565.148 694.068C566.781 694.095 567.07 692.793 568.808 693.01Z" fill="black"/>
<path fill-rule="evenodd" clip-rule="evenodd" d="M539.666 693.96C541.271 694.177 541.745 695.588 541.508 697.733C533.979 696.62 525.029 699.225 518.632 697.733C522.923 692.494 534.585 697.244 539.666 693.96Z" fill="black"/>
<path fill-rule="evenodd" clip-rule="evenodd" d="M554.171 693.96H557.83C558.093 696.457 555.908 696.403 554.171 696.674V693.96Z" fill="black"/>
<path fill-rule="evenodd" clip-rule="evenodd" d="M468.193 695.833C473.668 696.294 475.748 695.48 479.17 696.783C476.485 697.543 467.456 700.257 468.193 695.833Z" fill="black"/>
<path fill-rule="evenodd" clip-rule="evenodd" d="M480.092 695.833C490.174 696.158 503.284 695.1 509.365 696.783C500.178 699.551 486.515 700.04 480.092 695.833Z" fill="black"/>
<path fill-rule="evenodd" clip-rule="evenodd" d="M59.4158 696.783C62.0483 698.058 58.705 700.99 58.4944 702.455C55.2827 700.61 59.6264 698.683 59.4158 696.783Z" fill="black"/>
<path fill-rule="evenodd" clip-rule="evenodd" d="M585.261 698.683V702.455C581.391 701.261 579.39 703.08 577.021 701.505C578.6 698.275 581.786 700.963 585.261 698.683Z" fill="black"/>
<path fill-rule="evenodd" clip-rule="evenodd" d="M568.808 700.555C562.253 705.821 548.063 702.129 533.137 703.269C533.479 698.574 537.928 701.587 540.455 701.397C549.564 700.854 560.173 698.52 568.808 700.555Z" fill="black"/>
<path fill-rule="evenodd" clip-rule="evenodd" d="M509.365 703.378C490.543 705.088 471.589 704.681 459.979 702.455C473.853 700.039 494.149 700.962 509.365 703.378Z" fill="black"/>
<path fill-rule="evenodd" clip-rule="evenodd" d="M630.987 700.555C633.778 699.877 634.331 701.532 636.463 701.505C635.542 702.672 629.829 705.495 630.987 700.555Z" fill="black"/>
<path fill-rule="evenodd" clip-rule="evenodd" d="M438.024 705.278C439.9 704.878 441.854 705.216 443.5 706.228C443.71 708.807 437.998 707.965 438.024 705.278Z" fill="black"/>
<path fill-rule="evenodd" clip-rule="evenodd" d="M584.418 707.151C582.628 712.064 578.442 708.915 575.283 709.051C541.429 710.598 503.574 713.394 469.193 707.151C510.155 709.105 550.196 707.097 584.418 707.151Z" fill="black"/>
<path fill-rule="evenodd" clip-rule="evenodd" d="M628.25 706.228C630.645 705.957 632.172 706.581 631.909 708.942C629.513 709.322 627.328 709.376 628.25 706.228Z" fill="black"/>
<path fill-rule="evenodd" clip-rule="evenodd" d="M98.7456 707.151C101.378 707.151 101.984 717.6 98.7456 717.546V707.151Z" fill="black"/>
<path fill-rule="evenodd" clip-rule="evenodd" d="M603.557 714.696C582.497 715.972 561.121 716.759 540.376 717.546C543.43 712.362 550.907 714.832 556.83 714.696C562.095 714.533 567.939 713.23 574.204 712.823C584.076 712.199 595.817 711.303 603.557 714.696Z" fill="black"/>
<path fill-rule="evenodd" clip-rule="evenodd" d="M445.343 716.542C448.765 717.193 453.688 717.519 459.058 718.415C456.478 720.613 447.37 719.907 445.343 716.542Z" fill="black"/>
<path fill-rule="evenodd" clip-rule="evenodd" d="M597.159 721.319C551.517 725.722 505.561 725.404 459.979 720.369C476.827 715.538 494.202 723.083 506.627 719.419C532.716 725.933 572.335 716.895 597.159 721.319Z" fill="black"/>
<path fill-rule="evenodd" clip-rule="evenodd" d="M334.672 723.192C338.647 724.766 344.965 723.897 346.571 727.914C342.674 729.95 338.436 723.436 334.672 727.914V723.192Z" fill="black"/>
<path fill-rule="evenodd" clip-rule="evenodd" d="M491.991 727.914C491.227 730.628 482.514 728.403 479.171 727.914C481.04 723.979 488.568 727.399 491.991 727.914Z" fill="black"/>
<path fill-rule="evenodd" clip-rule="evenodd" d="M580.68 728.864C550.406 730.52 521.58 733.125 492.886 728.864C504.706 726.34 521.317 729.597 538.612 728.864C551.222 728.294 563.911 727.073 573.388 726.964C575.678 726.937 579.864 724.467 580.68 728.864Z" fill="black"/>
<path fill-rule="evenodd" clip-rule="evenodd" d="M604.478 729.787C605.531 729.95 605.242 731.524 605.373 732.501C593.237 732.176 575.942 736.708 562.411 736.274C572.072 729.76 592.816 733.831 604.478 729.787Z" fill="black"/>
<path fill-rule="evenodd" clip-rule="evenodd" d="M337.436 731.687C336.646 733.071 334.487 733.044 332.855 733.56C332.223 730.303 336.067 730.113 337.436 731.687Z" fill="black"/>
<path fill-rule="evenodd" clip-rule="evenodd" d="M310.9 731.687C310.505 735.894 308.978 733.071 306.346 734.401C306.003 731.66 309.32 732.555 310.9 731.687Z" fill="black"/>
<path fill-rule="evenodd" clip-rule="evenodd" d="M561.489 735.541C555.882 740.182 547.089 736.192 537.797 737.414C542.693 733.071 554.25 734.157 561.489 735.541Z" fill="black"/>
<path fill-rule="evenodd" clip-rule="evenodd" d="M379.503 738.255C375.686 737.495 371.869 739.531 370.342 738.255C371.737 735.921 379.582 734.103 379.503 738.255Z" fill="black"/>
<path fill-rule="evenodd" clip-rule="evenodd" d="M349.308 737.332C348.045 739.504 342.938 737.685 340.173 738.282C340.305 734.293 347.492 737.034 349.308 737.332Z" fill="black"/>
<path fill-rule="evenodd" clip-rule="evenodd" d="M367.604 737.332C367.604 739.748 364.208 739.558 363.024 738.282C363.223 737.865 363.513 737.5 363.871 737.216C364.229 736.932 364.645 736.737 365.087 736.645C365.53 736.554 365.987 736.568 366.423 736.687C366.86 736.806 367.264 737.027 367.604 737.332Z" fill="black"/>
<path fill-rule="evenodd" clip-rule="evenodd" d="M609.032 736.383C610.112 736.545 609.822 738.12 609.954 739.232C596.133 738.147 582.233 742.544 567.833 741.947C579.732 737.007 593.737 739.45 609.032 736.383Z" fill="black"/>
<path fill-rule="evenodd" clip-rule="evenodd" d="M613.613 736.383C615.93 737.414 620.01 735.84 621.853 737.332C620.747 739.422 613.534 740.969 613.613 736.383Z" fill="black"/>
<path fill-rule="evenodd" clip-rule="evenodd" d="M238.664 738.255C233.03 743.846 216.603 737.224 209.39 740.128C217.341 735.677 227.581 739.395 238.664 738.255Z" fill="black"/>
<path fill-rule="evenodd" clip-rule="evenodd" d="M320.956 737.332C312.4 742.761 296.21 740.291 287.128 741.105C295.868 736.219 308.004 738.635 320.956 737.332Z" fill="black"/>
<path fill-rule="evenodd" clip-rule="evenodd" d="M207.574 738.255C201.011 741.509 193.52 742.175 186.514 740.128C193.44 738.668 200.507 738.039 207.574 738.255Z" fill="black"/>
<path fill-rule="evenodd" clip-rule="evenodd" d="M500.178 739.232C501.757 737.061 507.18 738.88 510.234 738.282C511.182 739.531 511.155 741.757 512.077 743.005C518.289 744.172 522.475 742.109 527.608 744.878C527.214 746.995 523.107 745.258 521.211 745.828C523.844 751.636 535.69 747.891 540.429 750.55C533.216 753.265 518.474 750.143 510.234 748.65C510.918 746.533 515.367 748.298 517.552 747.701C516.657 743.901 510.839 745.203 507.496 743.928V740.155C505.021 740.407 502.522 740.091 500.178 739.232Z" fill="black"/>
<path fill-rule="evenodd" clip-rule="evenodd" d="M521.238 740.155C520.948 743.276 514.736 742.082 514.841 739.232C516.657 737.332 519.211 739.531 521.238 740.155Z" fill="black"/>
<path fill-rule="evenodd" clip-rule="evenodd" d="M178.3 740.155C177.984 743.303 173.035 741.648 170.06 742.055C170.455 739.07 177.089 739.368 178.3 740.155Z" fill="black"/>
<path fill-rule="evenodd" clip-rule="evenodd" d="M273.413 740.155C270.78 744.254 258.802 738.581 256.96 741.105C255.564 737.577 270.254 739.232 273.413 740.155Z" fill="black"/>
<path fill-rule="evenodd" clip-rule="evenodd" d="M382.241 743.928C361.839 743.928 348.44 745.475 333.777 744.878C337.515 740.752 348.545 742.896 358.47 742.164C365.92 741.431 376.792 738.255 382.241 743.928Z" fill="black"/>
<path fill-rule="evenodd" clip-rule="evenodd" d="M331.012 743.928C325.747 747.321 306.714 745.719 300.844 745.828C309.689 744.036 325.826 740.969 331.012 743.928Z" fill="black"/>
<path fill-rule="evenodd" clip-rule="evenodd" d="M620.931 743.928C615.166 747.402 607.137 744.688 595.317 745.828C602.214 741.132 613.376 743.059 620.931 743.928Z" fill="black"/>
<path fill-rule="evenodd" clip-rule="evenodd" d="M280.731 743.928C274.098 747.646 251.458 746.642 242.323 743.928C251.537 742.679 266.963 744.824 280.731 743.928Z" fill="black"/>
<path fill-rule="evenodd" clip-rule="evenodd" d="M298.106 744.878C297.895 747.809 293.552 746.479 290.788 746.778C290.235 743.06 295.816 745.665 298.106 744.878Z" fill="black"/>
<path fill-rule="evenodd" clip-rule="evenodd" d="M444.421 744.878C443.184 749.953 437.734 745.936 432.548 747.592C434.128 744.335 440.288 745.638 444.421 744.878Z" fill="black"/>
<path fill-rule="evenodd" clip-rule="evenodd" d="M463.639 744.878C466.271 747.945 460.032 747.782 458.137 746.778C458.058 744.091 463.77 747.538 463.639 744.878Z" fill="black"/>
<path fill-rule="evenodd" clip-rule="evenodd" d="M551.433 745.828C547.721 748.542 543.035 747.185 539.534 746.778C543.193 744.253 546.51 745.611 551.433 745.828Z" fill="black"/>
<path fill-rule="evenodd" clip-rule="evenodd" d="M585.261 744.878C582.365 749.736 577.205 745.936 572.467 747.592C573.441 743.358 582.655 747.538 585.261 744.878Z" fill="black"/>
<path fill-rule="evenodd" clip-rule="evenodd" d="M389.612 746.778C390.612 751.202 380.899 747.701 376.792 749.492C376.45 749.655 375.423 753.265 375.897 753.265C369.631 753.509 377.871 753.699 374.975 750.55C372.817 748.08 342.253 749.248 334.724 749.6C327.195 749.953 320.535 752.315 315.533 750.55C340.621 745.773 365.656 748.135 389.612 746.778Z" fill="black"/>
<path fill-rule="evenodd" clip-rule="evenodd" d="M404.196 746.778C403.117 752.07 396.115 747.076 390.481 748.651C392.587 743.874 398.168 747.972 404.196 746.778Z" fill="black"/>
<path fill-rule="evenodd" clip-rule="evenodd" d="M430.706 745.828C426.257 750.659 415.621 746.886 410.593 748.542C412.489 744.091 421.202 746.778 430.706 745.828Z" fill="black"/>
<path fill-rule="evenodd" clip-rule="evenodd" d="M554.171 745.828H565.991C565.991 748.895 554.302 748.895 554.171 745.828Z" fill="black"/>
<path fill-rule="evenodd" clip-rule="evenodd" d="M633.725 751.473C630.092 751.12 624.959 752.342 622.748 750.55C624.064 748.053 633.514 746.18 633.725 751.473Z" fill="black"/>
<path fill-rule="evenodd" clip-rule="evenodd" d="M643.782 750.55C641.307 750.55 641.939 752.097 640.122 750.55C640.015 750.247 639.98 749.921 640.02 749.601C640.061 749.28 640.176 748.975 640.355 748.71C640.535 748.445 640.774 748.229 641.052 748.08C641.33 747.93 641.639 747.852 641.952 747.852C642.265 747.852 642.574 747.93 642.852 748.08C643.13 748.229 643.369 748.445 643.548 748.71C643.728 748.975 643.843 749.28 643.884 749.601C643.924 749.921 643.889 750.247 643.782 750.55Z" fill="black"/>
<path fill-rule="evenodd" clip-rule="evenodd" d="M310.9 751.473C308.208 750.742 305.378 750.742 302.687 751.473C303.792 750.17 311.426 745.692 310.9 751.473Z" fill="black"/>
<path fill-rule="evenodd" clip-rule="evenodd" d="M620.931 749.6C612.56 752.803 595.712 755.029 590.763 750.55C600.687 750.849 611.138 748.026 620.931 749.6Z" fill="black"/>
<path fill-rule="evenodd" clip-rule="evenodd" d="M438.946 750.551H442.605C442.868 753.02 440.683 752.966 438.946 753.265V750.551Z" fill="black"/>
<path fill-rule="evenodd" clip-rule="evenodd" d="M445.343 750.551H449.923C450.844 753.699 447.054 752.016 445.343 752.423V750.551Z" fill="black"/>
<path fill-rule="evenodd" clip-rule="evenodd" d="M470.036 752.423C467.933 751.907 465.741 751.907 463.638 752.423C462.454 749.438 471.22 749.438 470.036 752.423Z" fill="black"/>
<path fill-rule="evenodd" clip-rule="evenodd" d="M547.774 750.551C551.143 753.265 543.509 752.342 541.377 752.423C541.745 748.054 546.247 753.753 547.774 750.551Z" fill="black"/>
<path fill-rule="evenodd" clip-rule="evenodd" d="M589.841 751.473C581.523 755.002 570.65 752.858 556.909 753.373C568.044 749.112 579.469 751.826 589.841 751.473Z" fill="black"/>
<path fill-rule="evenodd" clip-rule="evenodd" d="M401.432 751.473H407.855C408.04 755.246 401.985 754.54 401.432 751.473Z" fill="black"/>
<path fill-rule="evenodd" clip-rule="evenodd" d="M523.081 754.296C522.686 756.413 518.211 755.056 517.579 754.296C518.79 750.333 520.58 754.323 523.081 754.296Z" fill="black"/>
<path fill-rule="evenodd" clip-rule="evenodd" d="M269.754 753.373C273.176 753.373 272.386 754.432 275.256 753.373C276.545 756.305 268.516 756.305 269.754 753.373Z" fill="black"/>
<path fill-rule="evenodd" clip-rule="evenodd" d="M179.222 755.246V757.96C177.589 757.743 174.641 758.91 175.562 756.087C176.641 755.353 177.943 755.054 179.222 755.246Z" fill="black"/>
<path fill-rule="evenodd" clip-rule="evenodd" d="M189.278 755.246C189.146 759.752 187.198 756.494 183.776 757.146C184.618 755.49 186.645 755.056 189.278 755.246Z" fill="black"/>
<path fill-rule="evenodd" clip-rule="evenodd" d="M618.193 758.069H610.875C611.796 754.269 616.719 754.676 618.193 758.069Z" fill="black"/>
<path fill-rule="evenodd" clip-rule="evenodd" d="M655.68 755.246C658.076 755.002 660.261 754.948 659.34 757.96C657.602 757.689 655.496 757.743 655.68 755.246Z" fill="black"/>
<path fill-rule="evenodd" clip-rule="evenodd" d="M665.737 758.069C663.104 758.856 663.367 756.739 661.182 757.146C660.893 754.676 667.342 753.862 665.737 758.069Z" fill="black"/>
<path fill-rule="evenodd" clip-rule="evenodd" d="M447.159 480.871C437.761 450.553 413.62 419.069 370.342 429.953C369.262 425.691 374.396 427.836 372.974 423.357C377.265 425.23 381.951 422.272 386.716 422.407C406.75 423.059 423.782 439.425 437.919 451.639C444.076 462.777 449.282 474.447 453.477 486.516C458.241 499.028 459.084 502.258 460.795 518.598C462.924 538.631 463.803 558.784 463.428 578.934C463.191 583.683 464.217 589.655 463.428 593.074C462.769 595.789 458.847 601.678 457.926 607.215C456.609 615.195 457.926 622.225 455.293 628.929C453.455 631.906 451.921 635.072 450.713 638.374C450.318 639.677 444.447 646.354 445.237 644.969C440.235 653.682 438.261 662.313 434.259 670.428C432.022 670.048 430.705 671.08 426.941 671.351V675.124C426.678 678.082 429.573 672.735 429.573 676.074C427.193 678.68 425.66 681.986 425.188 685.533C424.716 689.08 425.329 692.69 426.941 695.86C429.573 695.86 428.126 691.436 429.573 690.215C433.312 690.215 431.364 694.367 432.338 694.937C436.076 695.969 432.206 689.156 436.892 691.165C440.63 690.866 437.392 693.146 437.813 694.937C441.736 693.96 440.446 687.582 444.21 686.442C444.552 690.188 441.262 693.282 443.289 695.86C447.501 695.453 444.237 688.152 449.712 691.165C451.134 694.503 446.606 691.735 447.08 693.879C450.397 697.923 457.768 694.313 464.454 696.593C446.027 698.683 435.075 695.996 416.911 697.543C429.863 702.971 449.212 695.833 458.057 703.188C446.922 702.998 430.468 700.474 419.649 703.188C423.255 705.903 430.995 704.084 435.207 706.038C431.574 707.558 426.283 704.708 424.229 707.911C425.335 711.602 429.494 710.137 432.469 709.811C466.192 714.697 503.152 712.525 538.533 715.457C496.15 722.893 441.762 708.155 387.637 710.761C371.105 711.548 350.782 709.323 344.675 699.443C342.937 701.207 342.358 699.443 340.094 699.443C323.483 686.279 315.77 665.109 305.345 643.802C304.134 645.702 301.37 646.001 300.764 648.525C285.549 650.642 264.752 645.105 266.015 622.116C264.552 620.76 263.315 619.165 262.356 617.393C256.117 618.533 255.117 615.711 246.824 616.471C245.824 611.042 248.404 609.305 248.641 605.152C254.748 605.342 259.671 611.124 265.094 608.925C268.806 604.881 266.094 594.242 266.937 587.212C259.618 578.092 256.959 564.168 247.719 557.03C244.902 556.324 245.982 559.609 243.165 558.903C243.876 574.129 235.504 589.302 237.663 604.175C238.058 606.89 242.165 612.182 241.322 618.316C239.874 629.173 228.423 633.081 227.607 643.775C232.029 643.314 231.529 637.777 233.082 634.357C239.743 631.154 240.585 621.953 245.903 617.366C243.481 628.766 246.982 634.601 248.535 647.548C243.981 652.406 237.558 648.606 232.977 650.262C224.237 653.655 220.736 669.044 211.048 673.848C203.151 677.702 197.649 675.45 186.355 673.848C181.406 660.277 194.779 658.025 201.887 651.212C204.783 643.802 208.363 637.125 214.708 633.298C225.238 602.764 212.786 562.296 210.127 530.513C210.127 527.636 208.205 526.849 207.494 524.867C211.864 493.491 195.069 476.175 182.801 458.859C177.536 465.345 177.8 477.613 173.64 485.267C175.22 490.696 179.985 492.569 179.142 500.331C199.413 540.039 191.489 597.716 186.461 646.489C185.867 653.287 184.324 659.96 181.88 666.303C179.484 671.487 176.615 681.339 173.64 688.912C171.982 692.983 168.217 696.104 166.322 700.23C164.742 703.758 165.295 707.504 163.689 710.625C162.61 712.607 159.635 713.774 158.214 716.271C156.792 718.768 156.897 722.242 155.581 724.766C154.265 727.29 149.474 729.814 148.263 732.284C147.235 735.087 145.678 737.652 143.682 739.83C142.287 741.377 139.997 742.028 140.023 744.553C146.552 745.312 157.529 739.613 168.375 740.78C163.505 743.494 155.976 743.63 147.315 746.452C176.273 745.828 203.598 740.59 241.507 743.603C242.928 747.592 236.426 743.413 237.847 747.375C247.324 751.202 264.172 745.72 277.177 749.275C257.223 752.722 224.685 750.497 201.255 751.148C212.575 745.72 223.684 749.791 236.031 747.375C224.211 743.114 203.467 745.15 191.278 747.375C191.278 752.234 196.333 747.647 198.57 751.148C179.221 754.079 157.477 752.261 135.39 754.921C135.679 760.213 139.444 751.799 139.97 756.821C137.864 761.842 130.098 756.821 128.071 756.821C116.804 756.576 101.404 761.435 86.9252 760.593C76.7637 759.996 69.2611 754.622 60.4158 753.971C53.7819 747.782 50.6229 743.847 41.9882 739.83C21.6386 714.797 8.06209 684.667 2.6321 652.488C-2.28174 620.074 -0.405686 586.951 8.13406 555.347C9.71357 549.919 12.6357 543.459 14.5311 536.511C15.6935 532.596 17.2186 528.806 19.0853 525.193C22.218 519.303 24.3503 512.056 26.4037 508.229C26.667 507.768 28.8783 507.849 29.0362 507.279C29.6417 505.977 28.536 503.887 29.0362 502.557C29.5364 501.227 32.3795 499.843 33.6168 497.834C40.9089 485.946 44.1469 478.265 53.7555 468.63C57.7152 465.064 61.9998 461.9 66.5496 459.184C67.8395 458.261 68.1291 455.032 72.0252 455.412C73.2625 455.113 72.7886 453.05 72.9466 451.639C90.5844 446.482 112.434 442.845 134.232 449.766C144.762 440.348 138.891 425.339 150.685 416.762C151.448 416.192 153.66 417.386 154.344 416.762C165.137 406.828 164.111 384.87 170.797 365.844C174.272 355.964 178.695 350.4 180.853 339.435C184.907 339.191 179.379 346.736 182.696 348.88C184.855 348.88 185.329 347.252 188.172 347.93C185.539 343.425 186.329 339.978 190.804 338.485C179.563 332.46 163.242 328.063 150.553 330.017C146.71 333.599 143.998 338.349 137.733 339.435C137.285 351.703 136.495 368.124 122.201 363.021C121.543 360.117 123.149 359.574 123.122 357.348C118.937 358.706 115.725 361.04 111.223 362.071C111.96 357.484 113.066 353.277 116.699 351.703V356.399C121.595 355.774 124.07 347.659 130.441 351.703C132.231 351.052 132.863 349.179 133.073 346.98C131.125 343.832 126.334 348.5 124.833 346.03C124.965 341.443 128.861 340.765 127.466 334.739C119.568 334.305 116.409 347.197 109.196 350.753C94.8754 353.467 98.1924 336.422 93.6382 327.194C94.033 323.801 96.5602 322.634 100.035 322.471C96.7708 329.827 98.0871 343.126 102.668 347.93C112.145 347.007 117.638 341.977 119.147 332.84C134.311 330.342 144.92 323.313 160.293 324.344C172.851 325.213 184.434 332.487 196.885 332.84C215.076 333.382 232.635 329.664 248.088 339.435V342.149C257.881 344.022 262.751 350.916 270.043 355.367C280.099 346.275 264.778 336.639 259.065 333.654C260.382 327.9 255.906 328.225 254.485 325.158C247.956 327.113 247.272 327.873 240.769 325.158C242.691 315.279 246.719 296.144 243.402 284.609C241.954 286.264 242.191 289.63 241.586 292.154C239.164 285.314 241.586 276.819 241.586 271.418C236.926 280.456 236.873 299.238 237.926 311.018C238.328 307.527 238.935 304.064 239.743 300.649C241.875 305.074 240.059 313.515 240.664 319.649C240.036 318.807 239.123 318.241 238.107 318.065C237.092 317.889 236.049 318.115 235.188 318.699C232.556 306.756 237.821 291.801 236.11 277.199C232.722 290.414 231.477 304.115 232.424 317.749C228.081 315.279 228.107 317.749 224.211 316.799C223.526 322.39 232.108 316.364 232.424 322.471C225.185 320.924 217.235 323.937 209.574 323.421C210.917 319.133 217.919 320.707 221.473 318.699C221.473 307.272 220.236 294.814 226.949 290.417C230.503 275.842 224.632 260.887 222.368 246.095C220.999 237.056 222.737 227.448 218.709 220.636C215.84 219.55 216.498 222.101 215.05 222.536C209.279 237.539 201.286 251.529 191.357 264.008C191.594 265.039 193.174 264.659 193.2 265.881C183.223 282.166 171.008 295.737 164.848 315.876C156.95 317.586 152.528 312.646 149.29 316.799C144.762 316.039 151.422 313.515 148.368 312.103C145.314 311.126 146.947 315.035 146.552 316.799C140.865 316.799 137.127 319.052 131.915 319.513C132.231 315.116 142.998 317.532 140.155 312.89C140.471 311.208 135.127 316.364 134.653 313.84C135.39 311.642 139.075 310.529 139.233 305.372C141.682 304.721 140.997 307.299 141.866 308.086C145.346 301.528 148.355 294.715 150.869 287.703C154.528 287.703 153.291 292.208 155.45 291.476C159.056 291.476 159.188 287.811 160.004 284.88C159.082 285.504 159.056 287.051 157.371 286.78C157.775 285.892 157.985 284.924 157.985 283.944C157.985 282.963 157.775 281.995 157.371 281.107C166.98 281.107 164.453 268.296 172.008 266.017C172.008 264.334 170.876 264.035 171.087 262.271C178.984 259.204 175.904 252.853 176.589 245.28C184.907 243.163 187.83 234.885 186.645 225.494C185.566 222.508 179.774 224.381 181.143 218.871C184.75 222.047 184.302 220.907 188.461 218.871C188.672 222.508 191.094 223.051 193.963 221.586C195.832 221.314 194.174 217.406 196.596 217.813C192.805 215.099 191.068 205.301 190.199 202.722C194.827 206.035 199.114 209.827 202.993 214.04C203.389 212.964 204.002 211.986 204.792 211.172C205.581 210.358 206.529 209.726 207.573 209.318C204.467 204.649 200.36 201.039 197.517 196.127C197.333 192.517 198.254 195.774 200.15 195.177C201.808 183.397 206.52 174.739 210.206 164.995C210.759 153.324 209.969 140.242 212.838 131.068C217.419 140.215 207.442 164.371 216.498 172.54C214.681 181.551 216.735 188.31 218.34 196.127H222C222.763 186.871 226.528 180.683 228.397 172.54C231.872 171.156 228.581 176.747 232.056 175.39C235.32 165.484 225.632 151.886 232.056 144.259C234.451 147.109 229.423 162.389 237.531 164.072C237.531 174.196 241.033 180.547 241.191 190.454C241.349 194.2 239.795 190.155 238.558 192.354C238.558 197.077 241.006 199.248 241.191 203.672C242.007 206.685 238.19 204.948 238.558 207.445C244.086 222.671 234.478 236.459 242.217 250.871C251.036 209.67 250.115 170.261 248.614 122.627C246.535 121.921 243.928 122.627 243.139 118.854C237.347 118.718 234.636 126.101 233.056 132.995C236.216 134.593 239.022 136.848 241.296 139.618C241.006 142.766 238.242 143.363 235.82 144.313C235.662 141.599 238.9 142.467 237.637 138.668C235.294 137.31 233.741 135.139 231.24 133.945C230.661 127.377 234.794 125.802 234.899 119.804C235.189 117.307 229.634 120.673 231.24 117.09C235.978 116.303 243.507 116.276 249.667 115.19C248.114 113.209 242.717 112.964 241.428 111.417C245.297 108.269 256.091 111.58 260.645 104.822C261.698 104.985 261.408 106.532 261.54 107.536C266.463 104.333 273.965 99.122 273.439 93.3951C270.806 93.3951 271.149 96.1093 269.78 97.1678C268.253 96.2179 269.122 92.798 267.147 92.4452C266.779 87.9939 270.885 88.1568 269.78 83.027C273.36 83.407 274.834 85.9855 277.098 87.7497C281.731 85.3069 282.784 79.1457 282.574 71.7089C281.916 67.6919 275.519 69.5647 277.098 63.2407C275.466 63.105 275.176 64.3806 273.439 64.1635C277.072 58.4637 267.726 59.0337 268.858 52.8454C258.328 49.9955 248.93 50.1312 235.952 50.9726C234.899 55.8038 238.4 59.4137 240.506 55.6953C242.902 60.1194 248.878 60.8793 251.484 65.1134C251.642 69.1576 247.746 64.1363 246.008 64.1635C245.561 67.1491 247.64 67.5019 246.93 70.7589C234.293 75.5902 232.161 65.4663 229.555 54.7453C226.37 55.8581 228.713 62.6707 223.132 61.3408C224.158 46.4942 217.709 43.4001 207.6 41.5544C206.257 36.1261 209.416 35.2575 210.232 32.1091C216.087 32.6391 221.985 32.0033 227.607 30.2363C229.239 16.8283 239.032 11.8342 244.06 1.9275C246.166 3.17602 251.51 1.2761 254.116 0.054718C264.646 8.68579 282.468 -4.12511 295.289 3.82742C297.711 11.9699 302.133 19.2168 303.502 27.4136C303.871 29.4764 302.607 32.8419 303.502 34.9318C307.214 43.6172 321.351 42.423 320.877 53.9311C317.455 54.311 312.348 56.9981 310.821 53.9311C306.357 59.0884 303.066 65.2069 301.185 71.8411C299.304 78.4754 298.882 85.4585 299.948 92.2823C307.398 92.2823 315.191 94.6437 323.641 96.055C327.379 102.488 336.119 99.3392 339.173 107.373C349.914 107.373 352.335 115.733 359.312 119.641C358.706 120.591 357.206 120.618 357.469 122.355C360.101 122.762 366.63 124.88 364.787 132.724C371.816 137.419 370.552 150.664 374.843 158.182C375.001 161.168 372.422 161.331 373.001 164.778C379.556 168.333 371.816 184.076 377.581 186.491C378.424 191.133 374.554 190.943 375.765 195.937C375.265 198.027 377.502 197.267 377.581 198.651C379.898 215.777 374.501 236.649 383.083 247.669C384.636 249.677 389.612 252.093 391.297 256.164C391.297 259.801 392.007 264.442 389.48 265.582C389.77 266.885 391.771 266.369 393.139 266.532C389.822 274.675 396.43 287.866 402.274 289.168C404.064 291.72 402.274 297.962 406.855 297.664C408.171 306.675 410.172 317.314 408.671 324.996C405.591 340.901 391.665 343.588 380.345 348.582C381.714 372.276 358.022 367.282 347.492 377.271C347.07 381.233 348.887 387.503 344.859 387.639C347.5 402.247 351.794 416.485 357.653 430.061C363.524 431.093 363.603 435.815 370.447 433.834C370.737 436.304 366.92 434.567 367.815 437.607C371.711 438.719 376.344 434.322 380.635 434.892V438.665C382.536 438.294 384.379 437.655 386.111 436.765C384.926 432.992 384.215 437.037 381.53 436.765C381.793 432.178 393.85 432.965 394.324 436.765C391.165 437.525 390.823 435.381 387.927 435.842C389.006 440.294 392.139 437.552 396.167 439.588C398.799 438.991 395.298 437.579 396.167 435.842C418.438 440.782 427.757 456.063 439.156 473.542C441.657 469.281 435.681 466.757 435.497 462.224C441.42 466.051 442.078 475.741 447.159 480.871ZM252.379 15.0912C249.43 13.0827 248.298 9.22862 243.244 9.41862C239.743 14.0056 235.689 17.9954 233.161 23.5595C238.426 29.7749 246.508 28.3093 254.222 25.4594C258.276 13.897 274.545 14.9827 281.679 6.46017C271.149 1.54751 262.909 14.0327 252.379 15.0912ZM271.596 31.1049C271.596 28.9064 273.149 28.3907 272.491 25.4594H269.859C268.516 28.255 268.937 30.1006 271.596 31.1049ZM251.457 33.819C246.956 31.7563 237.768 31.702 231.345 31.1049C234.109 37.1303 247.798 37.4832 251.457 33.9547V33.819ZM293.578 37.5917C295.973 37.456 298.843 32.9234 296.21 30.9692C296.026 32.1091 295.21 31.5663 294.394 30.9692C293.051 32.5705 291.551 35.6918 293.525 37.7274L293.578 37.5917ZM288.102 38.5146C280.863 37.6732 269.964 36.7775 264.409 41.2287C270.491 44.7029 283.521 38.1346 289.076 43.9429C289.313 42.2873 290.656 41.7987 292.735 42.043C295.684 45.4628 307.24 49.5341 311.031 45.8157C305.714 41.4459 296.394 39.6545 288.049 38.6503L288.102 38.5146ZM241.401 43.4272C245.719 45.0286 248.272 43.7258 254.195 43.4272C254.353 41.093 254.38 38.8403 252.379 38.7045C249.852 41.3916 242.007 38.6503 241.401 43.4272ZM291.709 97.1678C293.92 94.7522 291.314 92.0109 289.866 90.5724C289.512 91.1107 289.277 91.7229 289.179 92.3654C289.08 93.0078 289.121 93.6648 289.297 94.2894C289.473 94.914 289.78 95.4909 290.197 95.979C290.614 96.4672 291.13 96.8545 291.709 97.1135V97.1678ZM274.334 104.713C278.151 101.999 286.838 95.5122 283.469 91.5224C281.679 97.0864 275.703 98.5249 274.334 104.659V104.713ZM302.739 95.2408C297.474 98.9049 291.551 101.918 287.181 106.532C284.548 107.02 276.335 109.002 277.124 115.977C279.309 118.963 283.285 112.91 285.364 115.977C281.336 117.823 279.441 121.813 275.308 123.522C274.992 120.591 277.414 119.017 275.308 116.927C270.385 114.674 270.964 118.8 267.068 119.641C267.621 117.198 266.7 116.248 264.436 116.927C261.593 121.894 270.385 125.911 266.252 131.991C263.014 129.059 263.62 122.247 259.855 119.75C258.039 116.71 256.222 124.445 254.353 121.623C248.114 137.528 254.564 160.408 254.353 178.213C254.178 182.078 254.806 185.937 256.196 189.531C257.074 195.137 257.383 200.823 257.117 206.495C261.698 208.368 260.303 216.401 263.514 219.686C266.147 202.695 265.884 183.696 269.911 170.668C278.625 142.033 287.997 115.081 305.371 98.0635C305.152 97.4271 304.804 96.8462 304.35 96.3594C303.896 95.8727 303.347 95.4913 302.739 95.2408ZM266.147 109.382C269.385 109.382 273.518 110.06 273.465 106.667C273.755 103.736 270.833 109.083 270.833 105.745C271.833 104.198 275.782 100.886 273.465 99.1492C272.123 103.655 266.621 103.953 266.094 109.382H266.147ZM298.158 303.608V297.012C302.002 291.15 301.844 271.391 302.739 268.731C300.37 271.933 301.449 278.719 297.237 280.049C300.528 267.401 301.502 252.364 303.634 238.549C301.712 237.301 301.001 239.011 298.158 237.599C300.501 243.95 300.949 254.156 296.315 258.363C293.025 255.323 298.948 248.483 294.499 247.044C293.13 248.456 294.236 252.473 290.84 251.74C291.05 248.727 289.234 247.75 289.918 244.195C283.521 246.447 287.286 233.338 281.705 231.954C287.26 229.837 281.705 228.642 281.705 224.408C285.654 224.408 285.075 229.104 288.997 229.131C291.129 226.417 289.287 221.857 288.997 218.736C285.522 217.351 288.839 222.97 285.364 221.45V216.863C286.32 216.871 287.245 217.205 287.997 217.813V209.318C290.234 208.395 289.945 209.019 293.472 208.368C292.92 213.036 295.868 214.094 295.315 218.736C301.317 218.736 302.66 223.757 304.45 228.181C305.322 226.077 306.582 224.169 308.162 222.563C309.452 223.757 308.557 227.177 310.794 227.258C311.426 215.126 310.979 199.682 304.397 198.027C305.266 194.878 302.713 188.093 301.765 183.886C305.924 186.41 304.213 184.211 308.162 182.936C308.451 188.364 306.661 195.801 311.821 196.154C314.454 178.159 318.297 158.155 316.402 141.463C316.112 138.342 313.559 145.127 312.742 141.463C315.375 131.421 320.14 123.305 320.061 110.332C315.27 113.046 318.718 124.065 313.637 126.372C313.637 123.875 314.006 120.944 312.742 119.777C309.794 118.936 311.479 122.871 309.083 122.491C306.688 119.315 306.451 113.751 305.424 109.3C307.082 106.912 311.347 107.237 310.9 102.705C305.319 99.9906 304.608 109.816 300.843 112.123C303.713 112.123 306.293 118.61 302.686 119.668V115.027C299.264 115.597 299.843 120.293 297.184 121.623C297 120.89 296.421 120.537 295.368 120.7C295.21 117.986 298.448 118.854 297.184 115.027C281.389 131.502 278.362 161.005 269.753 184.809C275.887 183.587 275.018 175.173 281.652 174.44C285.733 164.181 294.236 158.508 299.027 148.981C299.027 143.39 294.894 141.897 295.368 135.763C302.239 135.926 303.45 128.815 308.162 124.472C307.161 129.711 305.529 134.406 300.843 135.763C299.396 143.553 303.687 145.426 303.476 151.804C300.554 153.813 300.159 158.427 295.263 158.4C289.655 170.885 277.941 177.019 272.386 189.531H269.753C262.777 225.955 276.177 263.275 279.81 298.098C283.364 299.455 282.995 304.884 287.128 305.643C287.786 310.61 291.077 308.955 293.525 313.162C293.915 309.521 295.537 306.138 298.106 303.608H298.158ZM324.668 120.7C324.457 113.887 331.697 114.729 331.065 107.482C327.906 108.242 327.221 106.45 325.589 105.609C322.535 109.327 322.878 115.679 324.615 120.7H324.668ZM329.248 128.245C332.223 129.385 329.959 125.178 332.907 126.345C332.907 130.986 329.696 135.736 331.065 140.486C331.381 141.517 333.829 142.82 333.829 144.259C333.829 156.065 328.801 167.492 331.986 181.986C333.697 189.721 333.592 202.423 337.488 210.267C342.542 205.192 344.254 199.194 349.361 196.127C349.861 197.484 348.308 200.985 350.282 200.849C357.39 192.137 361.233 180.059 364.919 167.845C359.654 167.031 362.471 174.739 357.6 174.44C358.496 167.818 363.55 165.456 362.181 156.527C348.861 159.648 356.626 178.837 347.544 188.581C345.78 183.153 352.388 181.687 349.361 178.213C350.177 181.497 346.386 179.814 345.702 179.136C344.148 180.683 345.359 185.08 342.042 184.809C341.279 180.873 343.832 180.357 343.885 177.263C338.094 170.722 347.86 154.871 342.042 144.259C343.227 144.259 343.332 145.48 344.806 145.209C343.885 135.628 347.439 128.924 347.439 117.85C341.542 119.098 348.466 112.611 343.78 112.204C342.718 114.709 341.157 116.956 339.199 118.8C338.646 116.547 340.357 111.96 338.278 111.254C336.198 111.607 337.409 115.38 334.619 115.027C333.381 112.15 338.041 108.595 333.724 108.432C331.697 114.511 328.09 118.936 329.196 128.245H329.248ZM350.308 126.345C353.257 126.535 352.546 122.98 353.968 121.623C351.309 121.813 350.124 123.278 350.124 126.345H350.308ZM321.035 137.663C322.851 137.935 322.851 136.388 323.667 135.763C325.958 137.555 321.746 140.676 325.484 141.436C326.433 138.073 326.746 134.553 326.405 131.068C325.221 131.068 325.142 129.846 323.773 130.118C323.272 133.131 320.824 134.053 320.956 137.663H321.035ZM356.705 147.081C356.969 143.906 360.154 143.716 359.47 139.563C355.916 139.265 352.599 145.48 356.626 147.081H356.705ZM364.024 193.222C366.814 192.571 370.763 186.437 366.656 184.727C364.913 187.228 363.966 190.224 363.945 193.304L364.024 193.222ZM367.683 196.968C371.737 197.402 372.658 194.58 372.264 190.373C369.894 191.865 367.183 192.842 367.604 197.049L367.683 196.968ZM333.855 216.781C334.566 222.861 332.513 226.064 332.012 230.922C338.146 231.492 345.017 221.938 351.23 227.15C348.782 221.721 356.626 215.587 360.365 216.781C360.681 220.853 355.31 219.116 355.784 223.377C363.524 220.337 366.709 212.52 372.264 207.363C369.868 207.635 371.526 203.699 368.604 204.513C365.972 206.983 366.261 212.167 363.102 213.959C360.47 210.376 365.498 208.042 364.945 203.591C363.155 203.292 363.129 204.866 362.313 205.463C361.576 202.206 363.655 201.854 363.208 198.868C360.338 199.926 360.812 199.302 358.653 197.918C350.703 204.785 345.386 214.067 333.776 216.863L333.855 216.781ZM237.821 217.731C236.584 210.43 238.558 204.595 235.188 198.732C234.609 203.943 234.794 213.47 237.742 217.813L237.821 217.731ZM326.431 210.267C325.879 206.766 328.169 200.306 323.799 200.849C323.193 205.436 325.431 207.228 326.431 210.267ZM231.319 212.14C230.792 210.485 232.424 206.712 230.397 206.495C229.186 207.689 228.844 212.14 231.345 212.14H231.319ZM370.315 216.863C373.79 218.763 373.948 212.575 372.158 212.14C371.79 213.959 369.578 213.85 370.342 216.863H370.315ZM292.577 218.736C292.577 216.021 293.13 212.547 289.945 213.09C289.589 214.203 289.668 215.415 290.164 216.469C290.66 217.523 291.536 218.336 292.604 218.736H292.577ZM300.817 226.281C301.08 223.811 300.475 222.237 298.185 222.536C297.842 224.978 298.448 226.58 300.843 226.281H300.817ZM354.784 228.181C357.837 227.231 362.892 228.398 362.102 223.458C359.391 224.734 356.021 225.277 354.81 228.181H354.784ZM365.761 230.054C367.946 230.461 367.736 228.344 370.315 229.131C369.815 227.747 371.395 224.245 369.42 224.408C368.131 226.2 365.919 227.122 365.919 230.054H365.761ZM331.012 236.676C331.012 239.879 330.749 243.245 332.855 244.195C335.213 243.071 337.661 242.163 340.173 241.48C340.41 244.385 346.281 244.195 347.492 243.38C347.492 250.301 358.39 245.606 359.391 249.026C362.26 248.564 363.392 246.312 366.683 246.312C367.815 243.245 363.734 245.579 364.866 242.539C367.499 243.19 368.841 245.253 373.08 244.412V241.698C371.842 241.128 365.472 238.251 367.604 234.152C363.971 233.229 364.972 236.866 361.207 236.052C361.045 235.241 361.043 234.405 361.201 233.594C361.36 232.783 361.675 232.012 362.128 231.329C349.94 229.674 339.015 231.357 331.012 236.676ZM288.892 238.549C288.655 236.405 289.129 234.994 290.735 234.776C292.446 238.061 292.077 243.435 295.315 245.145C295.842 238.332 294.262 233.664 290.735 231.004C289.339 232.089 286.049 236.134 288.944 238.549H288.892ZM330.117 252.69C333.223 252.853 335.593 250.247 339.252 251.74C339.541 253.613 338.015 253.613 337.435 254.454C342.279 254.807 347.702 258.037 350.229 255.377C348.966 256.598 349.334 259.475 349.308 262C357.39 262 366.841 262.434 370.368 254.454C366.762 249.379 358.127 255.404 352.099 254.454C352.099 252.961 354.415 253.694 353.915 251.74C351.651 248.673 346.939 253.966 344.78 250.817C346.754 250.98 347.676 250.03 347.413 248.103C343.674 246.393 343.753 249.704 339.173 249.053C338.883 247.777 337.883 247.262 338.251 245.28C334.329 245.742 327.353 248.266 330.117 252.69ZM304.503 264.958C304.503 258.77 308.899 248.673 306.345 245.959C303.818 249.704 303.055 260.29 304.503 264.958ZM311.821 256.463C312.505 253.707 313.753 251.135 315.48 248.917C314.818 248.45 314.071 248.125 313.284 247.962C312.497 247.798 311.686 247.8 310.9 247.967C310.294 250.112 308.557 255.893 311.821 256.463ZM309.189 284.744C312.4 275.679 319.719 261.131 316.507 251.74C316.323 264.578 308.135 274.132 309.083 284.744H309.189ZM342.095 266.831C338.172 264.741 342.385 262.922 342.095 259.285C336.432 258.485 330.898 256.906 325.642 254.59C316.007 280.483 304.582 304.585 289.971 325.294C288.655 331.075 295.631 328.253 295.473 332.84C289.418 329.772 274.939 325.186 269.859 336.612C283.021 341.796 277.967 359.113 269.859 366.794C270.885 366.984 271.28 367.825 271.701 368.667C278.309 366.631 280.283 359.52 285.417 358.298C285.628 362.288 281.521 361.827 281.758 365.844C285.891 369.399 292.551 360.415 295.473 360.171C294.841 365.192 289.208 365.057 288.155 369.617C291.656 368.775 293.973 371.164 295.473 369.617C295.631 371.028 295.131 373.091 296.368 373.389C296.237 371.327 299.632 372.955 300.949 372.439C302.628 375.452 305.014 377.98 307.89 379.792C310.765 381.604 314.036 382.641 317.402 382.807C319.007 378.952 319.641 374.742 319.245 370.566C315.98 367.31 308.899 366.278 305.529 365.844C307.361 362.226 308.394 358.235 308.553 354.157C308.712 350.079 307.994 346.016 306.451 342.258C304.239 339.544 295.605 338.376 298.211 333.789C301.449 335.282 301.554 337.888 304.608 337.562C304.608 331.021 312.716 332.704 313.743 327.194C313.743 324.263 310.189 330.098 310.084 327.194C313.98 321.766 325.879 319.676 325.642 313.026C323.193 315.252 317.586 319.133 315.586 318.699C315.375 316.907 316.612 316.609 316.507 314.926C321.535 313.813 324.404 310.42 327.484 307.381C330.643 305.833 344.306 297.202 342.095 293.24C334.197 298.207 331.96 303.418 321.983 306.431C321.166 309.525 314.243 316.554 312.848 310.203C327.142 300.459 346.228 290.58 350.335 273.426C345.086 282.034 337.85 289.168 329.275 294.19C328.643 289.711 336.488 289.114 332.934 284.744C331.565 285.016 330.301 289.956 329.275 287.459C333.381 279.017 339.805 277.688 343.911 270.495C342.542 269.165 339.383 273.969 336.593 274.268C337.462 270.956 341.042 270.251 341.99 266.831H342.095ZM309.189 264.958C312.216 266.098 311.426 258.58 310.084 258.363C309.715 260.561 308.557 261.891 309.083 264.958H309.189ZM357.653 280.972C357.495 278.257 358.443 274.512 355.81 274.376C353.941 276.33 354.494 281.162 357.548 280.972H357.653ZM303.687 285.694C306.582 285.694 307.425 278.909 305.529 277.199C304.09 279.774 303.412 282.727 303.581 285.694H303.687ZM348.439 289.467C348.176 287.241 353.362 285.857 350.256 283.794C349.729 285.26 345.175 287.269 348.413 289.467H348.439ZM360.312 293.24C359.68 297.582 356.337 299.184 357.679 305.508C362.786 306.865 361.26 314.492 364.076 315.876C364.234 314.763 365.524 314.845 366.709 314.926C371.053 302.685 382.267 297.718 394.14 297.962C393.482 295.058 396.772 296.144 395.983 293.24C392.455 290.526 389.033 294.407 385.926 295.113C385.926 287.567 378.029 298.885 380.451 289.467C376.054 289.657 374.58 292.86 371.29 294.19C370.842 291.204 374.106 292.046 373.106 288.517C369.032 290.59 364.726 292.139 360.286 293.131L360.312 293.24ZM329.222 313.026C336.251 310.312 345.017 299.971 344.78 296.062C339.831 302.007 333.302 306.241 329.196 313.026H329.222ZM229.529 308.331C230.687 306.648 231.266 299.537 229.529 297.962C228.344 299.618 227.765 306.702 229.529 308.331ZM383.162 304.558V309.416C387.058 308.711 390.823 307.869 390.481 302.794C388.193 303.919 385.696 304.52 383.162 304.558ZM224.027 311.153C226.949 312.483 226.343 305.508 224.948 305.508C223.988 307.213 223.661 309.219 224.027 311.153ZM279.81 318.699C282.837 320.436 284.338 319.513 285.312 324.344C286.18 323.068 288.392 323.123 288.944 321.63C287.365 315.713 284.89 310.773 278.888 309.389C278.599 313.026 280.52 314.492 279.81 318.699ZM331.933 316.799C334.75 317.504 333.697 314.085 336.514 314.926C336.356 313.515 336.83 311.452 335.593 311.153C334.487 313.135 333.065 314.845 331.933 316.799ZM360.286 314.926C360.286 312.836 356.416 314.519 354.81 313.976C348.676 321.793 332.039 318.807 330.117 330.967C328.932 330.967 328.853 332.161 327.484 331.89C326.116 331.618 326.642 330.234 325.642 330.017C323.825 332.731 319.245 332.731 318.323 336.612C318.587 339.923 321.746 334.251 321.983 337.562C320.456 340.711 314.559 343.289 316.507 346.98C323.141 340.711 339.673 348.337 344.859 338.485V342.258C354.731 344.13 361.891 335.472 366.788 335.662C365.34 337.644 361.891 337.508 362.234 341.335C368.025 340.629 369.262 337.888 375.949 336.612C375.423 338.051 370.868 340.059 374.106 342.258C376.08 340.978 378.253 340.06 380.53 339.544V343.316C389.428 340.792 400.8 336.042 401.59 328.225C400.747 326.543 397.931 331.564 398.957 325.511C393.692 325.104 389.191 330.505 386.163 329.284C388.611 324.263 397.931 326.326 398.957 319.866C392.962 321.446 387.14 323.656 381.583 326.461C380.319 321.359 385.874 323.34 386.163 319.866C378.108 320.436 370.737 327.411 363.287 330.234C364.34 325.973 370.526 327.004 370.605 321.739C366.209 321.006 363.445 326.868 360.549 324.453C360.549 319.893 367.446 322.119 367.867 317.857C362.76 315.143 352.072 322.879 348.676 324.453C350.124 318.644 358.706 317.857 360.286 314.845V314.926ZM326.431 327.194C328.353 325.403 332.276 325.674 331.907 321.521C328.853 321.521 323.799 324.398 326.431 327.194ZM260.619 330.967H263.251C263.514 328.795 263.014 327.411 261.408 327.194C261.224 328.415 260.224 328.985 260.619 330.967ZM309.083 336.558C314.585 334.712 320.35 333.084 322.799 328.063C318.192 330.912 311.663 331.727 309.083 336.558ZM137.97 334.685C140.944 333.708 142.761 335.337 143.472 330.912C142.518 330.897 141.594 330.564 140.839 329.962C140.734 332.432 136.89 331.13 138.049 334.739L137.97 334.685ZM196.517 339.381C197.122 351.242 189.541 356.724 191.936 367.662C195.043 362.858 206.863 362.967 212.075 367.662C214.286 362.234 215.471 348.962 215.708 338.431C211.628 335.201 201.255 335.581 196.596 339.435L196.517 339.381ZM222.131 347.876C219.209 348.419 219.288 346.112 217.551 347.876C218.498 351.296 215.471 358.733 219.367 359.194C220.894 353.766 226.817 344.076 223.948 340.195C223.178 341.303 222.628 342.556 222.33 343.884C222.032 345.211 221.991 346.587 222.21 347.93L222.131 347.876ZM246.824 362.967C245.535 362.78 244.225 363.11 243.165 363.89C241.322 373.959 246.192 377.108 246.824 384.653C250.089 385.874 250.168 384.653 253.221 385.576C255.354 392.904 261.619 398.821 266.937 405.389C267.647 412.826 270.517 418.037 272.412 424.389C282.942 426.858 303.739 444.311 308.083 422.489C304.915 417.968 301.229 413.857 297.105 410.248C296.947 411.659 297.447 413.722 296.184 413.993C291.129 413.315 291.603 406.041 286.128 408.348C283.837 403.815 280.52 400.205 277.914 396.107C276.861 400.368 281.679 403.462 278.809 406.475C277.941 399.527 272.781 396.975 272.412 389.484C274.834 390.136 274.36 393.8 276.993 394.207C274.018 380.935 270.701 367.988 262.356 360.253C261.329 363.971 264.989 366.821 261.435 367.798C260.276 365.22 259.987 361.745 258.802 359.33C258.573 361.466 257.644 363.457 256.17 364.975C253.853 360.117 254.485 352.246 252.51 347.062C251.721 349.287 250.273 344.348 247.035 346.112L246.824 362.967ZM323.641 362.967C327.958 364.025 327.879 359.357 325.457 358.244C324.51 359.438 322.93 360.008 323.799 363.021L323.641 362.967ZM223.026 366.74C223.026 367.309 223.184 367.852 223.948 367.662C224.316 366.061 225.132 367.879 226.58 367.662V364.948H223.105L223.026 366.74ZM220.394 365.79H214.892C214.471 370.349 220.868 369.128 220.367 365.844L220.394 365.79ZM238.821 481.766C236.328 483.687 234.12 485.973 232.266 488.552C229.634 484.833 226.106 486.923 222.21 483.829C222.868 475.415 225.843 469.362 227.686 462.116C221.341 455.303 233.714 448.029 230.318 441.379C227.054 444.093 227.686 450.662 223 451.747C223 450.635 223.158 449.033 222.105 449.033C218.683 451.747 216.84 461.22 212.049 459.401C212.865 456.172 215.997 455.303 215.682 450.906C209.811 451.15 213.497 461.22 207.468 461.301C205.283 451.177 213.207 451.476 212.944 443.361C213.604 443.834 214.35 444.162 215.138 444.326C215.926 444.489 216.738 444.484 217.524 444.311C217.34 433.942 230.16 424.416 223.921 416.979C224.606 412.636 232.714 415.975 231.24 409.433C231.529 406.475 228.607 411.822 228.607 408.484C229.318 405.064 232.266 402.322 227.686 400.938C229.397 396.405 233.846 394.75 235.004 389.62C230.371 388.046 230.976 396.731 227.686 393.393C227.502 389.131 231.766 389.43 233.161 386.797C233.925 381.939 231.108 380.772 230.529 377.379C221.789 376.348 214.339 381.315 219.551 392.47C218.525 412.745 209.469 424.796 204.02 440.538C203.546 439.154 202.651 438.177 202.177 436.765C204.493 431.337 208.389 427.456 207.679 418.852C216.735 412.066 221.447 384.816 210.311 376.429C203.44 380.772 190.567 376.918 186.619 380.202C183.512 392.714 180.88 405.715 176.562 416.979C186.118 446.238 210.785 462.577 217.709 489.583C209.574 482.553 206.626 470.177 198.491 463.174C197.412 467.761 201.598 475.062 204.915 478.265C220.454 506.195 237.522 533.191 256.038 559.12C256.459 546.065 242.428 539.877 241.401 525.193C239.322 525.437 237.953 524.976 237.742 523.293C233.872 513.468 226.975 506.737 223.105 496.911C228.054 500.521 239.901 500.901 244.165 499.625C243.797 501.444 239.98 499.625 241.533 503.398C246.679 502.453 251.874 501.819 257.091 501.498C256.749 516.888 259.039 534.964 251.589 542.998C260.066 555.945 266.568 570.927 277.203 581.648C270.648 588.759 265.199 609.848 271.728 621.248C273.36 606.862 273.044 586.669 285.443 580.725C286.681 583.439 292.314 577.875 291.84 583.439C290.313 585.095 288.76 582.598 285.443 583.439C270.833 598.259 275.545 628.684 285.443 642.825C291.735 642.825 293.709 643.585 300.975 643.775C303.344 641.061 305.161 638.048 309.215 637.18C308.873 622.713 317.112 603.741 308.293 589.085C305.029 599.941 309.952 643.775 291.84 637.18C290.449 636.516 289.275 635.449 288.461 634.11C287.648 632.77 287.23 631.215 287.26 629.634C290.761 630.856 292.999 629.906 298.237 630.584C297.553 627.68 300.87 628.766 300.08 625.862C288.55 626.052 284.285 616.633 284.522 602.275C284.522 603.605 282.179 603.28 282.679 601.353C291.05 601.353 285.312 586.94 291.84 585.312C293.736 586.805 291.287 592.803 295.499 591.907C296.342 586.479 300.764 584.688 300.08 577.767C293.762 575.812 286.917 574.862 280.863 578.716C281.363 540.338 293.709 485.186 293.657 436.331C287.049 433.372 283.837 435.924 277.203 434.458C277.572 448.409 268.437 459.483 269.885 474.058C267.963 475.306 267.253 473.596 264.409 475.008C264.962 480.925 260.145 481.278 258.907 485.376C259.96 488.633 261.119 496.857 257.091 497.617C254.195 491.049 245.192 496.07 242.454 493.844C241.954 491.673 247.087 490.614 244.271 489.149C239.374 492.786 237.321 487.954 233.293 489.149C235.189 487.629 240.427 484.318 238.663 481.82L238.821 481.766ZM233.161 378.085C232.767 384.056 240.059 380.582 236.847 377.162C236.584 379.143 234.293 375.778 233.161 378.085ZM287.128 403.544C287.852 403.038 288.411 402.32 288.735 401.483C289.059 400.646 289.132 399.728 288.944 398.848C287.154 397.817 283.495 393.881 285.312 392.253C289.655 393.718 289.26 400.124 294.446 400.721C292.92 392.578 287.286 388.616 283.469 382.807C281.889 383.377 283.469 387.286 281.652 387.53C279.02 385.44 279.02 380.935 276.15 379.035C276.229 387.964 282.521 398.631 287.128 403.544ZM339.252 382.807H341.884C342.7 379.795 340.489 379.876 339.252 379.035V382.807ZM335.593 389.403C338.225 387.774 340.252 389.729 341.99 388.48C341.516 384.11 338.725 387.042 334.671 385.766C334.548 387.053 334.875 388.342 335.593 389.403ZM301.765 401.698C301.265 395.998 296.895 396.27 299.948 391.33C297.614 390.297 295.134 389.656 292.604 389.43C293.42 395.808 297.316 398.984 301.765 401.698ZM309.083 406.421C309.847 401.562 316.296 409.325 318.218 406.421C316.902 399.88 311.479 403.354 307.24 399.798C307.24 399.228 307.24 398.685 306.345 398.875C306.082 402.567 306.688 405.389 309.083 406.394V406.421ZM323.72 408.293C323.378 403.842 321.087 407.398 319.139 404.521C318.534 407.914 321.166 408.212 323.799 408.266L323.72 408.293ZM336.514 405.579C335.882 408.701 329.538 405.932 329.196 409.352C330.801 410.193 333.75 409.678 334.671 411.225C338.223 421.117 341.281 431.191 343.832 441.406C346.465 441.651 346.649 439.262 349.308 439.507C348.565 427.061 344.094 415.16 336.514 405.444V405.579ZM326.431 414.862V412.148C322.693 411.143 321.166 412.826 317.27 411.198C318.902 415.649 324.457 414.563 326.431 414.862ZM239.558 422.407C242.73 419.762 244.976 416.121 245.955 412.039C241.638 412.555 237.689 418.553 239.558 422.407ZM145.393 435.625C153.87 432.721 167.98 429.98 168.244 443.144C178.774 432.097 163.768 425.583 156.345 422.407C156.055 423.493 153.528 426.858 152.685 424.307C157.951 417.305 166.848 419.042 173.746 423.357C169.218 402.892 146.42 421.837 145.393 435.625ZM316.507 419.584C319.139 420.29 322.957 417.576 320.166 415.812C319.929 418.227 318.587 414.509 316.507 415.812V419.584ZM171.113 428.08C171.798 424.524 170.086 423.466 167.454 423.357C167.401 426.126 169.428 426.858 171.113 428.08ZM226.001 432.775C226.317 430.55 230.397 427.347 227.817 425.23C226.659 427.266 221.605 431.065 225.869 432.775H226.001ZM231.477 433.725C231.687 432.992 232.24 432.64 233.293 432.775C232.793 431.418 234.372 427.917 232.398 428.08C232.056 429.546 228.739 432.477 231.345 433.725H231.477ZM262.567 442.221C264.049 441.688 265.311 440.65 266.144 439.278C266.977 437.906 267.331 436.283 267.147 434.675C263.804 435.435 262.435 438.122 262.435 442.221H262.567ZM140.944 450.689C149.368 454.272 152.422 463.391 161.057 466.73C160.846 460.243 164.953 458.18 163.689 450.689C159.214 450.689 161.215 446.672 156.371 448.816C155.4 447.105 155.081 445.083 155.476 443.144C149.632 444.256 151.185 439.181 145.42 438.448C143.652 442.431 142.113 446.519 140.813 450.689H140.944ZM350.124 455.412C351.019 451.937 355.942 452.697 356.521 448.816C354.126 446.265 354.362 440.999 350.124 440.321C346.411 442.823 343.534 446.443 341.884 450.689C343.016 450.689 344.069 450.987 343.727 452.589C348.755 453.647 350.993 446.943 353.783 448.816C352.757 450.553 347.281 452.589 350.124 455.412ZM372.974 599.67C369.947 606.292 362.049 607.812 359.285 614.761C347.413 618.289 335.329 629.661 323.615 636.474C324.062 651.619 331.828 666.819 340.068 677.024C339.647 683.945 344.754 688.45 349.203 687.392C358.522 701.913 378.16 695.534 391.323 692.115C406.618 678.327 425.967 668.718 429.731 643.069C447.106 613.702 450.555 564.168 447.106 521.447C441.42 493.166 431.521 474.736 418.78 454.489C408.698 447.649 388.085 434.865 374.027 445.071C371.079 444.528 369.789 445.722 367.63 446.021C362.839 461.111 378.16 473.162 377.687 486.543C380.635 485.729 380.556 488.009 381.346 489.393C379.503 498.485 386.242 511.106 390.507 513.821C392.429 527.663 398.404 534.883 401.458 550.598C423.65 557.682 403.038 589.085 385.926 590.197C385.926 594.486 382.425 595.382 380.451 597.743C377.581 598.204 378.029 594.486 375.87 596.793V601.515C374.528 601.326 374.291 599.996 373.08 599.67H372.974ZM293.42 575.242C296.504 575.568 299.621 575.244 302.581 574.292C305.924 534.068 314.269 499.001 328.169 469.634C321.43 459.522 313.468 450.338 304.476 442.302C307.056 488.552 295.815 526.876 293.525 575.161L293.42 575.242ZM257.986 456.362C257.697 452.833 264.541 447.92 259.829 445.993C259.908 449.712 254.511 452.535 257.986 456.362ZM418.043 450.689C418.043 447.975 415.937 447.188 414.384 445.993C414.015 449.06 415.332 450.553 417.911 450.689H418.043ZM25.7982 555.347C27.3741 546.732 29.5113 538.235 32.1952 529.916C38.329 511.758 45.3578 491.347 58.7047 478.998C75.2632 463.581 95.5599 453.62 121.885 455.412C130.23 458.804 135.653 462.143 142.945 464.83C145.578 468.06 149.211 475.334 153.001 474.275C151.527 474.682 149.948 470.747 152.106 470.502C154.739 471.208 153.87 475.578 157.582 475.225C148.368 445.369 104.932 444.555 78.9224 455.412C76.9743 459.049 72.0515 459.619 69.7876 462.957C44.3838 473.814 28.8783 509.776 21.323 543.107C18.6904 555.185 13.2938 568.375 11.2668 579.884C8.39312 597.959 7.06299 616.259 7.29165 634.574C7.29165 663.453 18.8221 687.202 26.4827 710.001C37.4076 723.083 47.8324 749.438 65.8125 747.701C55.2824 744.091 48.7801 736.356 42.1198 728.865C42.1198 727.073 45.1472 728.186 44.7523 726.015C41.6723 725.119 42.8043 719.881 39.2767 719.419C38.0921 721.753 41.9092 723.328 39.2767 724.142C36.3809 721.428 37.434 717.655 36.6442 714.697C36.6442 715.864 36.3546 716.949 34.8014 716.596C29.3364 708.811 25.0246 700.231 22.0074 691.138C25.9299 680.552 19.3749 665.923 16.5055 656.26C14.361 630.435 15.565 604.431 20.0857 578.934C22.5076 578.635 19.2433 584.226 22.7182 582.706C18.4272 574.238 23.3237 566.828 25.5876 555.347H25.7982ZM26.6933 555.347C29.8786 555.863 30.6157 549.051 27.6147 548.752C27.1145 550.978 25.9562 552.308 26.4827 555.347H26.6933ZM34.0117 532.738C28.4571 537.814 33.3536 542.862 34.0117 532.738V532.738ZM239.558 463.907C240.717 461.627 246.14 454.814 242.191 453.539C242.612 457.637 236.715 460.27 239.558 463.907ZM362.102 477.098C366.393 469.39 358.496 460.813 356.6 453.539C346.07 459.809 352.177 474.194 362.128 477.098H362.102ZM127.097 615.711C126.808 617.882 129.73 616.742 129.73 618.425C123.728 634.71 115.356 622.143 108.67 619.375C104.537 617.638 97.7186 619.918 94.033 617.475C93.5818 616.796 93.2676 616.03 93.1094 615.224C92.9511 614.417 92.9518 613.586 93.1116 612.779C89.4524 613.078 89.821 617.556 85.7933 617.475C80.5282 616.064 77.1849 612.535 77.5798 605.234C80.8968 603.931 81.7392 596.114 85.7933 598.638C85.9512 595.924 85.0298 592.152 87.636 592.016C89.0839 592.016 88.3468 594.432 90.2685 593.916C91.3479 589.682 94.1646 587.239 94.8491 582.598C93.8341 582.209 92.9292 581.565 92.2166 580.725C93.466 577.03 95.6795 573.762 98.6136 571.28C97.6659 567.48 97.5606 563.87 101.246 562.784C109.591 530.567 120.463 501.77 129.598 468.521C129.203 467.028 126.729 467.707 127.756 464.721C115.909 462.333 102.694 461.464 93.9277 464.721C89.6367 466.35 85.7933 473.868 81.1337 471.344C77.2376 476.772 70.3141 479.052 66.4969 484.535C59.0732 485.81 57.3358 497.563 51.8601 497.726C42.9359 520.796 31.2739 539.822 28.9836 567.507C28.2991 569 26.0878 568.918 26.3511 571.28C22.0545 596.201 20.2812 621.516 21.0597 646.815C25.1928 649.366 23.0341 656.206 23.6922 663.779C31.9583 683.999 35.2753 705.061 47.3849 721.319C57.0599 733.183 70.2348 741.457 84.8982 744.878C101.351 748.108 110.302 739.178 117.805 732.61C120.437 730.303 124.965 728.783 127.861 726.015C129.993 724.006 130.493 720.369 132.441 718.469C133.652 717.275 136.232 717.546 137.022 716.596C142.682 709.73 149.421 696.892 153.475 690.188C162.452 675.422 162.742 657.102 168.112 640.22C166.032 636.99 167.901 628.63 170.745 625.129C170.35 609.115 169.455 590.007 173.377 575.161C168.796 558.523 171.561 534.285 163.321 521.42C153.37 552.28 141.655 577.522 130.414 608.274C132.31 611.422 133.837 604.637 134.969 607.324C132.063 609.822 129.424 612.634 127.097 615.711ZM228.607 475.225C229.081 471.262 235.057 465.237 231.24 462.957C230.634 466.675 225.711 470.937 228.607 475.225ZM230.424 480.871C231.029 478.591 235.267 475.252 232.266 472.375C232.266 475.279 227.344 477.912 230.424 480.871ZM439.84 473.325C444.658 488.796 449.449 504.267 454.503 519.466C452.292 507.307 458.163 492.324 448.08 482.716C446.527 488.416 452.977 490.859 449.923 494.957C447.703 487.238 444.299 479.935 439.84 473.325ZM150.869 508.229C151.823 508.214 152.746 507.881 153.502 507.279C157.714 491.32 151.896 478.346 139.786 476.148C134.417 486.385 131.003 497.589 129.73 509.152C129.388 509.342 127.914 508.175 127.887 508.229C118.339 539.044 107.08 569.266 94.1647 598.747C95.6389 597.906 97.4816 602.438 94.1647 603.443C93.1906 602.574 93.8751 599.968 91.5321 600.728C90.2685 603.66 86.6883 606.401 91.5321 608.274C91.3742 605.913 92.9274 605.315 94.1647 604.501C95.5072 607.541 98.9032 604.094 98.7452 607.215C97.3763 609.251 96.1127 606.184 95.086 609.115C97.0078 615.059 105.09 613.919 109.723 614.761C109.46 610.201 113.698 609.332 117.015 610.988C131.23 579.748 143.84 546.852 150.869 508.229ZM329.196 476.148C316.033 499.001 310.242 529.508 307.24 563.001C313.427 560.911 311.294 550.218 318.218 548.861C319.692 550.191 321.825 550.815 322.799 552.633C329.327 550.136 336.856 553.61 341.99 550.76C341.726 552.606 343.227 552.633 343.832 553.475C338.831 561.97 319.403 550.109 320.956 565.716C325.01 566.258 327.379 565.716 329.196 566.665C328.09 572.474 322.509 573.614 316.402 574.211C315.586 579.992 312.663 583.575 310.9 588.352C312.269 590.415 315.48 590.55 315.48 594.024C334.619 591.373 352.835 583.917 368.525 572.311C363.129 559.31 356.942 547.151 352.072 533.634C344.885 535.995 346.175 547.069 336.514 546.852C332.065 537.922 345.701 541.017 343.832 531.761C336.935 528.45 337.62 539.334 333.776 542.129C332.565 536.701 338.278 533.634 335.593 529.888C334.171 531.218 334.882 534.801 331.933 534.584C331.775 533.173 332.276 531.11 331.012 530.811C328.064 530.567 328.064 534.095 323.72 534.584C330.486 523.184 335.092 505.054 336.514 491.157C324.668 500.005 324.036 520.416 318.086 535.48C316.928 530.947 318.35 525.654 319.008 520.389C317.428 520.009 316.665 521.8 316.375 520.389C321.43 511.161 327.537 502.991 329.169 490.207C332.671 493.356 329.38 483.476 334.645 485.512V477.966C332.919 477.102 331.085 476.49 329.196 476.148ZM334.671 509.152V520.47C337.016 519.614 339.512 519.29 341.99 519.52C342.964 514.825 345.886 515.178 347.492 512.925C348.939 512.925 348.202 515.34 350.124 514.825C350.076 514.083 350.221 513.342 350.546 512.679C350.87 512.015 351.36 511.453 351.967 511.052C352.757 512.436 353.336 514.038 355.6 513.766C357.732 502.91 365.603 498.296 366.577 486.407C364.761 486.407 365.419 483.856 362.918 484.535C356.827 496.099 346.746 504.885 334.671 509.152ZM458.057 515.693C458.057 510.971 458.426 505.895 455.425 504.402C455.425 509.179 455.03 514.255 458.057 515.693ZM37.3813 524.189C38.3553 517.62 43.6204 510.618 42.8833 505.19C40.9615 510.862 35.5912 517.892 37.4603 524.243L37.3813 524.189ZM391.297 552.47C391.507 551.738 391.297 550.625 392.218 550.598C384.32 536.375 384.32 517.186 375.765 505.325C374.4 507.058 372.865 508.641 371.184 510.048C362.155 507.334 360.654 519.656 357.469 526.089C361.26 536.945 366.735 546.065 367.525 560.016C375.265 557.302 384.347 555.836 391.376 552.525L391.297 552.47ZM180.143 624.26C180.643 619.158 182.538 615.439 181.959 609.197C183.565 607.405 184.592 610.309 186.54 608.247C186.171 592.152 187.145 576.789 186.54 562.974C186.54 561.264 181.933 564.793 181.959 561.101C182.959 552.199 179.327 542.971 181.038 536.674C183.091 540.229 180.827 548.209 184.697 549.865C185.366 540.199 183.805 530.507 180.143 521.583C177.168 524.813 183.381 530.404 180.143 533.824C178.037 525.953 177.852 516.073 172.824 511.215C182.354 542.401 180.59 586.723 180.143 624.26ZM455.425 533.661C456.873 531.707 457.189 524.894 453.608 525.193C453.977 528.233 452.371 533.335 455.425 533.661ZM456.346 552.525C456.82 550.462 458.557 546.445 455.425 545.929C454.904 546.991 454.71 548.193 454.87 549.372C455.03 550.55 455.536 551.651 456.32 552.525H456.346ZM294.473 601.57C292.656 601.57 293.314 598.991 290.814 599.67C286.444 603.795 289.603 609.034 290.814 614.761C294.762 615.195 297.474 618.316 300.87 616.661V610.038C299.896 607.812 296.658 612.074 295.394 609.115C303.871 590.822 313.453 573.668 320.982 554.425C319.166 554.425 319.824 551.71 317.323 552.525C308.372 567.507 303.713 586.913 294.446 601.57H294.473ZM460.005 560.07C460.558 558.007 462.296 553.04 459.084 552.525C457.294 554.452 458.452 558.713 459.979 560.07H460.005ZM394.192 566.665C396.035 565.716 396.298 563.164 397.878 561.97C400.221 563.544 402.222 561.726 406.091 562.893C406.934 547.096 386.269 556.216 394.113 566.665H394.192ZM448.159 617.583C454.161 601.624 459.926 572.365 455.477 557.247C455.793 577.739 449.212 599.263 448.08 617.583H448.159ZM378.661 562.893C379.055 564.386 381.53 563.707 380.503 566.665C383.794 566.937 384.9 564.928 387.795 564.793C387.058 562.323 390.586 559.609 387.795 558.197C385.137 560.233 378.871 558.469 378.582 562.893H378.661ZM370.421 562.893C370.792 565.775 371.409 568.618 372.264 571.388C372.422 569.977 374.475 570.52 375.923 570.438C375.645 568.974 375.663 567.466 375.975 566.009C376.288 564.552 376.888 563.177 377.739 561.97C374.291 563.029 372.369 562.051 370.342 562.893H370.421ZM383.241 570.438C383.847 571.171 388.69 572.908 387.795 569.515C387.348 567.398 382.715 568.593 383.162 570.438H383.241ZM458.215 589.437C459.11 581.675 461.953 575.188 459.137 569.651C459.058 576.979 456.03 581.892 458.057 589.302L458.215 589.437ZM394.192 574.347C381.951 577.061 373.369 583.683 364.024 589.437H359.47C359.312 590.55 359.47 592.152 358.548 592.152C343.28 595.001 330.275 605.913 318.297 611.965C319.324 620.868 315.796 625.102 315.664 632.701C341.568 615.113 361.865 602.845 387.901 586.56C388.743 583.846 388.19 579.938 389.743 578.065C392.771 576.165 392.613 581.485 397.062 579.015C397.852 575.405 394.877 575.894 394.113 574.211L394.192 574.347ZM455.425 607.215C456.399 606.238 457.32 600.484 455.425 599.67C455.188 601.434 453.055 605.913 455.425 607.215ZM119.779 610.988C123.201 610.282 120.411 615.982 124.333 614.761C123.622 611.531 125.202 609.902 127.097 612.046C126.939 609.332 127.887 605.56 125.255 605.451C123.807 606.13 125.465 610.065 122.622 609.224C122.122 607.84 123.701 604.338 121.701 604.501C120.88 605.33 120.274 606.359 119.938 607.492C119.602 608.625 119.548 609.827 119.779 610.988ZM84.1084 613.702C89.3735 614.924 90.0053 606.89 85.9249 606.157C84.6086 607.975 81.6076 610.907 84.2401 613.811L84.1084 613.702ZM118.858 621.248C121.885 622.686 126.755 622.333 126.176 617.475C122.569 617.638 119.911 618.832 118.858 621.356V621.248ZM445.29 627.843C446.185 626.595 449.423 619.7 445.29 619.375C445.658 622.089 442.71 626.106 445.342 627.952L445.29 627.843ZM177.378 641.17C178.037 638.048 182.644 629.933 178.3 627.952C180.09 633.923 174.878 637.587 177.378 641.17ZM212.154 638.455C211.601 640.41 213.26 644.644 211.233 645.051C209.653 644.481 211.233 640.572 209.39 640.328C207.673 644.159 207.043 648.412 207.573 652.596C212.049 653.248 211.048 648.254 214.892 650.696C216.308 646.074 219.204 642.084 223.105 639.378C222.579 637.723 224.211 633.95 222.21 633.733C218.53 634.358 215.068 635.947 212.154 638.347V638.455ZM176.483 660.169C180.459 655.799 182.091 643.884 181.038 637.56C178.431 643.802 178.484 652.976 176.378 660.006L176.483 660.169ZM312.742 647.928C314.19 646.517 314.059 642.5 310.9 643.205C310.768 645.404 310.636 647.629 312.742 647.765V647.928ZM222.21 652.488C226.106 654.523 227.712 646.571 224.027 646.815C223.156 648.604 222.544 650.515 222.21 652.488ZM167.322 680.769C169.323 671.975 176.984 659.517 173.719 651.538C171.113 660.087 166.743 672.003 167.322 680.769ZM189.277 670.401C190.91 671.541 194.542 670.401 197.517 672.274C200.15 670.863 195.911 668.42 198.412 667.579C203.046 669.044 207.6 664.376 207.573 658.133C199.176 656.45 190.804 658.54 189.277 670.401ZM425.23 669.451C427.862 668.664 431.6 664.023 428.889 660.956C428.152 664.294 425.203 665.326 425.23 669.451ZM171.903 676.047C175.193 675.341 175.615 666.737 174.535 664.729C174.009 668.528 170.113 672.763 171.903 676.047ZM422.466 676.997C423.282 676.237 426.52 671.215 422.466 671.324C422.729 673.115 419.912 676.047 422.466 676.997ZM412.409 685.465C414.779 685.926 417.674 682.154 415.174 680.769C415.174 683.294 412.278 682.805 412.409 685.465ZM414.252 689.238C417.043 689.943 416.885 687.609 419.728 688.315C419.965 684.596 422.36 685.981 422.36 680.769H419.728C419.833 685.573 414.726 685.031 414.252 689.238ZM159.109 701.506C159.899 698.249 160.82 695.073 163.663 698.791C164.769 695.182 169.77 690.649 167.322 686.523C165.664 688.586 166.454 693.173 163.663 694.069C162.005 689.455 167.77 687.691 164.584 684.651C162.189 688.993 157.45 696.023 159.109 701.506ZM344.859 692.115V688.315C341.226 689.536 342.99 685.193 339.357 686.415C340.469 688.934 342.421 690.957 344.859 692.115ZM401.537 701.533C404.433 701.994 403.959 698.276 406.118 700.583V695.86C403.406 696.62 400.774 697.353 401.432 701.506L401.537 701.533ZM154.528 707.151C157.398 707.151 157.661 704.736 158.187 702.456C154.791 701.777 155.897 705.686 154.528 707.151ZM142.629 725.092C145.262 725.743 146.499 720.396 144.472 719.419C143.946 721.401 142.155 722.106 142.629 725.092ZM139.997 726.965C137.075 729 133.415 730.222 132.678 734.51C135.706 732.827 140.786 732.827 139.891 726.965H139.997ZM129.941 743.005C137.627 736.79 146.868 732.149 150.053 721.292C144.551 729.272 132.626 735.541 129.835 743.005H129.941ZM104.326 748.651C102.878 752.369 108.275 748.977 107.985 751.365C100.799 756.142 93.3749 751.528 86.9252 755.138C96.5076 759.155 120.069 753.998 128.071 742.897C121.648 743.494 117.147 751.039 111.618 749.492C115.725 744.2 123.333 744.553 125.334 739.124C118.015 742.11 112.777 747.104 104.221 748.651H104.326ZM164.69 750.551C176.194 749.872 185.329 752.478 190.304 747.837C179.195 748.217 171.35 746.534 164.584 750.551H164.69ZM67.7605 751.474C73.6574 751.772 81.8971 760.105 86.0302 753.374C79.6858 753.726 71.8672 747.104 67.6552 751.474H67.7605Z" fill="black"/>
<path fill-rule="evenodd" clip-rule="evenodd" d="M267.016 140.486C267.016 139.563 268.122 139.753 268.832 139.563C264.752 151.342 260.54 163.04 259.698 178.213C256.96 167.79 261.356 148.547 267.016 140.486Z" fill="black"/>
<path fill-rule="evenodd" clip-rule="evenodd" d="M102.405 451.638C103.8 455.601 97.6662 451.801 97.8241 454.353C95.8761 453.593 99.5353 450.689 102.405 451.638Z" fill="black"/>
<path fill-rule="evenodd" clip-rule="evenodd" d="M399.616 493.98C401.511 495.418 397.299 498.458 396.983 500.575C395.916 499.813 394.612 499.484 393.324 499.652C393.324 495.771 398.642 497.155 399.616 493.98Z" fill="black"/>
<path fill-rule="evenodd" clip-rule="evenodd" d="M416.069 501.606C418.07 503.425 413.12 506.031 412.41 508.229C409.909 505.868 415.069 503.452 416.069 501.606Z" fill="black"/>
<path fill-rule="evenodd" clip-rule="evenodd" d="M150.053 571.388C151.501 572.935 147.026 576.409 146.394 578.933C143.288 575.758 149.421 574.048 150.053 571.388Z" fill="black"/>
<path fill-rule="evenodd" clip-rule="evenodd" d="M73.1312 582.706C75.6451 584.839 77.2818 587.874 77.7118 591.201C74.8424 589.736 74.3948 585.8 73.1312 582.706Z" fill="black"/>
<path fill-rule="evenodd" clip-rule="evenodd" d="M68.4455 595.897C67.2082 596.195 67.7083 598.258 67.5504 599.67C64.6283 598.285 58.9947 599.67 60.232 594.024C63.0354 595.551 66.21 596.202 69.3668 595.897C69.3142 597.118 68.4455 596.44 68.4455 595.897Z" fill="black"/>
<path fill-rule="evenodd" clip-rule="evenodd" d="M387.717 613.81C381.899 617.719 377.003 598.475 385.9 596.847C388.217 597.905 388.533 601.027 388.533 604.392C387.715 603.66 387.09 602.726 386.717 601.678C383.821 610.01 391.323 615.737 392.192 623.391C390.481 620.406 386.98 619.266 387.717 613.81Z" fill="black"/>
<path fill-rule="evenodd" clip-rule="evenodd" d="M75.869 622.306C73.842 621.899 75.5005 617.664 74.974 615.71C68.34 618.642 63.97 623.853 56.678 626.078C59.9686 620.514 80.8445 608.572 75.869 622.306Z" fill="black"/>
<path fill-rule="evenodd" clip-rule="evenodd" d="M64.8914 624.26C67.1027 626.594 60.7583 628.141 58.4944 628.983C54.3087 633.787 46.8323 640.219 42.0411 641.251C49.4912 635.334 55.9408 628.467 64.8914 624.26Z" fill="black"/>
<path fill-rule="evenodd" clip-rule="evenodd" d="M104.221 660.006C104.932 651.429 105.143 639.975 101.589 631.724C103.379 630.095 102.958 626.296 104.221 624.179C108.407 626.486 107.433 634.085 111.54 636.447C100.035 640.545 113.698 652.27 113.382 661.906C110.039 659.978 111.461 653.193 107.88 651.537C106.985 655.636 111.171 662.584 112.461 667.578C114.435 667.578 112.856 664.213 113.382 662.855C119.437 665.76 114.909 669.532 114.277 671.324C114.277 671.324 116.173 672.952 116.12 670.401C116.12 672.409 117.041 674.391 115.199 676.046C111.329 670.917 110.908 662.258 104.221 660.006Z" fill="black"/>
<path fill-rule="evenodd" clip-rule="evenodd" d="M74.0526 626.974C71.5311 631.273 67.7119 634.6 63.1803 636.447C65.26 631.778 70.3407 630.123 74.0526 626.974Z" fill="black"/>
<path fill-rule="evenodd" clip-rule="evenodd" d="M80.4495 634.574C75.48 638.849 70.89 643.572 66.7341 648.687C64.9967 645.159 66.0497 644.915 62.1536 646.788C66.1023 640.491 72.9206 637.152 76.7903 630.774C78.1593 631.914 80.8707 631.615 80.4495 634.574Z" fill="black"/>
<path fill-rule="evenodd" clip-rule="evenodd" d="M138.049 643.042C141.919 644.725 144.183 648.036 147.21 650.588C144.578 651.402 138.891 647.249 138.049 643.042Z" fill="black"/>
<path fill-rule="evenodd" clip-rule="evenodd" d="M74.9741 643.992C71.1887 653.5 66.5992 662.646 61.2587 671.324C58.8631 669.722 63.0225 666.954 62.1537 663.778C57.2046 663.1 57.8891 676.345 52.0975 677.946C56.5465 673.712 56.0726 659.409 63.0751 660.956C67.8663 656.179 69.9986 648.688 74.9741 643.992Z" fill="black"/>
<path fill-rule="evenodd" clip-rule="evenodd" d="M60.3372 647.765C55.0722 656.504 46.8588 662.15 41.1199 670.401C42.8047 661.743 53.6243 654.36 60.3372 647.765Z" fill="black"/>
<path fill-rule="evenodd" clip-rule="evenodd" d="M122.517 667.687C121.967 667.871 121.492 668.236 121.163 668.727C120.835 669.217 120.673 669.806 120.701 670.401C116.199 664.972 115.436 655.636 111.54 649.637C114.383 647.086 113.83 656.043 118.858 654.36C120.964 663.833 127.387 668.827 128.914 678.788C126.65 679.005 124.571 670.808 122.517 667.687Z" fill="black"/>
<path fill-rule="evenodd" clip-rule="evenodd" d="M587.051 710.001C586.725 709.259 586.557 708.454 586.557 707.639C586.557 706.825 586.725 706.02 587.051 705.278C593.5 710.951 610.954 702.564 616.298 709.051C606.547 708.157 596.728 708.476 587.051 710.001Z" fill="black"/>
<path fill-rule="evenodd" clip-rule="evenodd" d="M90.5058 655.31C96.508 662.91 94.8232 681.529 94.165 694.91C93.3218 692.504 91.6681 690.491 89.5055 689.237C91.0587 683.293 90.2426 674.906 90.4269 667.524C91.9537 664.511 90.7428 672.111 92.2696 672.219C93.3489 671.025 95.0601 661.2 90.4269 662.801L90.5058 655.31Z" fill="black"/>
</g>
<defs>
<clipPath id="clip0">
<rect width="666" height="761" fill="white"/>
</clipPath>
</defs>
</svg>
