<svg width="34" height="34" viewBox="0 0 34 34" fill="none" xmlns="http://www.w3.org/2000/svg">
<path d="M32.9844 16.9947C32.9844 19.2379 32.9392 21.4876 32.9973 23.7308C33.094 27.7016 30.598 30.7699 27.4182 32.1365C26.1412 32.6844 24.7996 32.9745 23.4129 32.9745C19.0722 32.9809 14.7251 33.0389 10.3844 32.9551C7.11438 32.8907 4.42482 31.5241 2.49635 28.8296C1.48373 27.4115 1 25.8 1 24.0531C1 19.4313 1 14.8159 1 10.1941C1 6.42311 2.83818 3.78667 6.10176 2.07202C7.52071 1.33072 9.0622 1.01487 10.6682 1.00842C14.8799 1.00842 19.098 0.982635 23.3097 1.02131C26.5798 1.0471 29.308 2.29763 31.3203 4.92763C32.4426 6.39733 32.9844 8.0862 32.9844 9.94267C32.9844 12.289 32.9844 14.6418 32.9844 16.9947ZM3.37996 16.9947C3.37996 19.3604 3.37996 21.7196 3.37996 24.0853C3.37996 25.1425 3.62505 26.1352 4.17328 27.0312C5.61158 29.384 7.78515 30.5314 10.4812 30.5765C14.8089 30.641 19.1432 30.6023 23.4774 30.5894C24.5416 30.5894 25.5736 30.3702 26.5346 29.9126C29.1532 28.662 30.6173 26.6702 30.6044 23.6792C30.5786 19.1025 30.598 14.5258 30.598 9.94911C30.598 8.65345 30.2303 7.46738 29.4628 6.42311C27.9794 4.41839 25.9283 3.43214 23.4774 3.40636C19.1561 3.35479 14.8347 3.38702 10.5134 3.39346C9.59109 3.39346 8.70102 3.5804 7.83675 3.9027C5.46324 4.78581 3.25742 7.0226 3.36061 10.3165C3.43801 12.5469 3.37996 14.7708 3.37996 16.9947Z" stroke="#331414"/>
<path d="M17.0278 23.8275C12.8677 23.8275 9.51378 20.5142 9.50733 16.3887C9.50088 12.3277 12.8806 9.00154 17.0149 9.00154C21.1621 8.99509 24.5288 12.3148 24.5353 16.4081C24.5353 20.4949 21.175 23.821 17.0278 23.8275ZM17.0278 21.4424C19.8592 21.4424 22.1553 19.1799 22.1489 16.3952C22.1424 13.6363 19.8463 11.3801 17.0278 11.3801C14.1963 11.3801 11.8873 13.6298 11.8873 16.4081C11.8937 19.1928 14.1963 21.4489 17.0278 21.4424Z" stroke="#331414"/>
<path d="M25.4058 6.74542C26.2765 6.74542 26.986 7.48672 26.986 8.39561C26.9796 9.30451 26.2636 10.0394 25.3929 10.0329C24.5351 10.0265 23.8321 9.29162 23.8321 8.40206C23.8256 7.49317 24.5351 6.74542 25.4058 6.74542Z" stroke="#331414"/>
</svg>
