<svg width="134" height="52" viewBox="0 0 134 52" fill="none" xmlns="http://www.w3.org/2000/svg">
<path d="M91.2846 16.7408C87.9324 16.7408 84.6555 17.7458 81.8684 19.6287C79.0813 21.5115 76.9093 24.1877 75.6272 27.3186C74.345 30.4495 74.0103 33.8945 74.6653 37.2177C75.3204 40.5409 76.9358 43.5931 79.3072 45.9881C81.6786 48.3832 84.6995 50.0134 87.9877 50.6727C91.2758 51.3319 94.6836 50.9906 97.7798 49.6918C100.876 48.393 103.522 46.1951 105.382 43.3762C107.242 40.5573 108.233 37.244 108.231 33.8554C108.227 29.315 106.44 24.9618 103.262 21.7526C100.084 18.5434 95.7764 16.7408 91.2846 16.7408V16.7408ZM91.2846 48.1028C88.5086 48.1028 85.795 47.2707 83.4869 45.7117C81.1788 44.1528 79.3798 41.937 78.3175 39.3445C77.2552 36.7521 76.9773 33.8994 77.5188 31.1473C78.0604 28.3952 79.3971 25.8672 81.36 23.8831C83.3229 21.8989 85.8238 20.5477 88.5464 20.0002C91.269 19.4528 94.0911 19.7338 96.6557 20.8076C99.2204 21.8814 101.412 23.6999 102.955 26.033C104.497 28.3661 105.32 31.1091 105.32 33.9152C105.316 37.6754 103.836 41.2802 101.204 43.9377C98.5722 46.5951 95.0045 48.0878 91.2846 48.0878V48.1028Z" stroke="#331414"/>
<path d="M92.9911 33.8554C92.9911 34.1966 92.891 34.5301 92.7035 34.8137C92.516 35.0974 92.2495 35.3185 91.9377 35.449C91.6259 35.5796 91.2828 35.6138 90.9518 35.5472C90.6207 35.4806 90.3167 35.3164 90.078 35.0751C89.8394 34.8339 89.6769 34.5265 89.611 34.1919C89.5452 33.8573 89.579 33.5105 89.7081 33.1953C89.8373 32.8802 90.056 32.6108 90.3366 32.4212C90.6172 32.2317 90.9472 32.1305 91.2847 32.1305C91.7366 32.1325 92.1695 32.3149 92.4891 32.6379C92.8087 32.961 92.9891 33.3986 92.9911 33.8554V33.8554Z" stroke="#331414"/>
<path d="M41.8873 16.7408C38.535 16.7408 35.2581 17.7458 32.471 19.6287C29.684 21.5115 27.512 24.1877 26.2298 27.3186C24.9476 30.4495 24.6129 33.8945 25.268 37.2177C25.923 40.5409 27.5385 43.5931 29.9099 45.9881C32.2813 48.3832 35.3022 50.0134 38.5903 50.6727C41.8785 51.3319 45.2862 50.9906 48.3824 49.6918C51.4787 48.393 54.1242 46.1951 55.9845 43.3762C57.8448 40.5573 58.8362 37.244 58.8332 33.8554C58.8293 29.315 57.0422 24.9618 53.8647 21.7526C50.6871 18.5434 46.379 16.7408 41.8873 16.7408V16.7408ZM41.8873 48.1028C39.1113 48.1028 36.3977 47.2707 34.0896 45.7117C31.7815 44.1528 29.9825 41.937 28.9202 39.3445C27.8579 36.7521 27.5799 33.8994 28.1215 31.1473C28.663 28.3952 29.9998 25.8672 31.9627 23.8831C33.9256 21.8989 36.4265 20.5477 39.1491 20.0002C41.8717 19.4528 44.6938 19.7338 47.2584 20.8076C49.823 21.8814 52.0151 23.6999 53.5573 26.033C55.0996 28.3661 55.9227 31.1091 55.9227 33.9152C55.9188 37.6754 54.4383 41.2802 51.8066 43.9377C49.1749 46.5951 45.6071 48.0878 41.8873 48.0878V48.1028Z" stroke="#331414"/>
<path d="M43.5937 33.8554C43.5937 34.1966 43.4937 34.5301 43.3062 34.8137C43.1187 35.0974 42.8521 35.3185 42.5403 35.449C42.2285 35.5796 41.8854 35.6138 41.5544 35.5472C41.2234 35.4806 40.9194 35.3164 40.6807 35.0751C40.4421 34.8339 40.2795 34.5265 40.2137 34.1919C40.1479 33.8573 40.1816 33.5105 40.3108 33.1953C40.44 32.8802 40.6587 32.6108 40.9393 32.4212C41.2199 32.2317 41.5498 32.1305 41.8873 32.1305C42.3399 32.1305 42.7739 32.3123 43.0939 32.6357C43.414 32.9592 43.5937 33.398 43.5937 33.8554Z" stroke="#331414"/>
<path d="M63.2138 37.5741L52.1923 11.3495L83.8829 11.5137L83.8755 12.8055L54.1277 12.6487L63.6201 35.2219L83.9419 12.9101L84.8801 13.7837L63.2138 37.5741Z" stroke="#331414"/>
<path d="M50.8666 5.12366L49.6902 5.6282L53.0456 13.6227L54.2221 13.1182L50.8666 5.12366Z" stroke="#331414"/>
<path d="M64.0559 36.8946L40.7644 34.2661L53.6475 11.7602L64.0559 36.8946ZM42.8549 33.161L62.0614 35.3265L53.4702 14.6649L42.8549 33.161Z" stroke="#331414"/>
<path d="M43.5936 2.68011C43.5936 2.68011 57.1859 3.27749 57.3927 4.5693C57.4961 5.15174 52.0666 4.75598 49.8283 5.74911C46.903 7.05586 44.155 6.48089 43.5936 2.68011Z" stroke="#331414"/>
<path d="M91.1739 34.6768C91.0389 34.6768 90.9075 34.6334 90.7986 34.5529C90.6897 34.4723 90.6089 34.3588 90.5681 34.2288L82.1616 8.3626C81.977 7.94444 80.5734 4.76344 81.5264 2.67264C81.7127 2.2625 81.9904 1.90148 82.3377 1.6178C82.685 1.33412 83.0924 1.13545 83.5283 1.03734L83.6834 1H83.809C84.1857 1.05227 92.9025 2.42622 94.3799 2.69504C96.1159 3.01613 96.9432 5.28614 96.596 7.17533C96.0789 10.2742 93.4048 10.9836 91.2625 10.655C91.1796 10.6423 91.0999 10.6131 91.0281 10.5693C90.9563 10.5254 90.8938 10.4677 90.8441 10.3994C90.7943 10.3311 90.7584 10.2535 90.7383 10.1712C90.7182 10.0889 90.7144 10.0033 90.727 9.9195C90.7396 9.83566 90.7684 9.75515 90.8118 9.68257C90.8552 9.60999 90.9123 9.54676 90.9799 9.49649C91.0474 9.44622 91.1241 9.40989 91.2056 9.38958C91.287 9.36928 91.3717 9.36539 91.4546 9.37813C94.5129 9.84856 95.1481 7.8847 95.3328 6.96625C95.5692 5.54749 94.993 4.10633 94.1213 3.97939C92.7621 3.72551 84.8801 2.48596 83.7277 2.30675C83.497 2.37559 83.2841 2.49489 83.1041 2.6562C82.9241 2.8175 82.7814 3.01686 82.6861 3.24014C82.0656 4.60663 82.9447 7.04838 83.3362 7.86977V7.95191L91.8092 33.8554C91.863 34.0188 91.8504 34.1971 91.7742 34.3511C91.698 34.5051 91.5645 34.6223 91.4029 34.6768C91.3272 34.6908 91.2496 34.6908 91.1739 34.6768V34.6768Z" stroke="#331414"/>
<path d="M67.7864 35.6998C67.7864 36.5313 67.5424 37.3441 67.0855 38.0354C66.6285 38.7268 65.9789 39.2656 65.219 39.5838C64.459 39.902 63.6228 39.9852 62.8161 39.823C62.0093 39.6608 61.2683 39.2604 60.6866 38.6725C60.105 38.0845 59.7089 37.3354 59.5484 36.5199C59.3879 35.7045 59.4703 34.8592 59.7851 34.091C60.0999 33.3228 60.6329 32.6662 61.3169 32.2043C62.0008 31.7423 62.8049 31.4958 63.6274 31.4958C64.7305 31.4958 65.7883 31.9387 66.5682 32.7271C67.3482 33.5155 67.7864 34.5848 67.7864 35.6998V35.6998Z" stroke="#331414"/>
<path d="M1.53161 21.5197H23.7298C24.4685 21.5197 25.9829 20.3996 24.5645 20.3996H2.40329C1.66458 20.3996 0.187161 21.5197 1.56855 21.5197H1.53161Z" stroke="#331414"/>
<path d="M2.51404 31.324H18.9208C19.7481 31.324 21.1369 30.0546 19.7186 30.0546H3.31184C2.48449 30.0546 1.09572 31.324 2.51404 31.324Z" stroke="#331414"/>
<path d="M14.0972 41.0985H19.8813C20.1423 41.1171 20.404 41.0734 20.6452 40.9709C20.8864 40.8684 21.1005 40.7101 21.27 40.5086C21.536 40.0905 21.041 39.8515 20.6864 39.8515H14.895C14.635 39.8329 14.3744 39.8767 14.1344 39.9792C13.8943 40.0817 13.6816 40.2401 13.5136 40.4414C13.2476 40.8596 13.7426 41.0985 14.0972 41.0985V41.0985Z" stroke="#331414"/>
<path d="M131.958 20.5863H109.797C109.132 20.5863 107.521 21.6019 108.925 21.6019H131.131C131.788 21.6019 133.398 20.5863 131.995 20.5863H131.958Z" stroke="#331414"/>
<path d="M130.961 30.2563H114.569C113.83 30.2563 112.316 31.3838 113.734 31.3838H130.141C130.88 31.3838 132.394 30.2563 130.976 30.2563H130.961Z" stroke="#331414"/>
<path d="M119.666 40.21H113.874C113.357 40.2204 112.849 40.3588 112.397 40.6132C112.057 40.8073 112.109 41.0089 112.5 41.0089H118.292C118.81 40.9986 119.317 40.8601 119.769 40.6057C120.109 40.4116 120.057 40.21 119.666 40.21Z" stroke="#331414"/>
</svg>
